<svg id="Layer_1" data-name="Layer 1" xmlns="http://www.w3.org/2000/svg" viewBox="0 0 92.78 57.4"><defs><style>.cls-1{fill:#bdccdb;}.cls-2{fill:#b6c9dd;}.cls-3{fill:#a1bace;}.cls-4{fill:#c5d2e3;}</style></defs><title>email</title><rect class="cls-1" width="92.78" height="57.4" rx="1.99" ry="1.99"/><path class="cls-2" d="M9020.92,93.5l-44.24,32.94a2.11,2.11,0,0,0,1.32,3.8h88.35a2.11,2.11,0,0,0,1.32-3.8L9023.44,93.5A2.11,2.11,0,0,0,9020.92,93.5Z" transform="translate(-8975.79 -72.85)"/><path class="cls-3" d="M8976,74.71a0.09,0.09,0,0,0-.05.15l45.9,36.26a2.11,2.11,0,0,0,2.52,0l44-34.9V74.61Z" transform="translate(-8975.79 -72.85)"/><path class="cls-4" d="M9020.92,109.59l-44.24-32.94a2.11,2.11,0,0,1,1.32-3.8h88.35c2.08,0,3,2.57,1.32,1.8l-44.24,32.94C9022.7,110.14,9021.67,110.14,9020.92,109.59Z" transform="translate(-8975.79 -72.85)"/><path class="cls-3" d="M8975.06,75.84" transform="translate(-8975.79 -72.85)"/></svg>
