<svg id="c5a8cac0-4da8-4d98-92fc-14a636fa0760" data-name="Layer 1" xmlns="http://www.w3.org/2000/svg" viewBox="0 0 135.6 121.93"><defs><style>.\32 d9f8bb0-844c-468d-b447-e1c2d4d307be{fill:#3a5a99;}.efa3628e-07e3-492e-bd79-a065b6a6bfdd{fill:#3f66a5;}.da0b0dc1-a177-4771-8c10-6d0808e4e0ac{fill:#e8eff7;}.bdf0dc34-05a8-43fc-814d-6ee65cf3f071{fill:#fcc454;}.f86ff711-a197-492d-be5c-71cbb4b54ec7{fill:#f7bf16;}.\31 aa9212c-073c-464b-b27c-38fcd7654619{fill:#80620b;}</style></defs><title>facebook-smiley</title><path class="2d9f8bb0-844c-468d-b447-e1c2d4d307be" d="M8963.73,170.88c0-28.51-28.32-51.62-63.25-51.62s-63.25,23.11-63.25,51.63,28.32,51.63,63.25,51.63c1.41,0,2.81-.05,4.2-0.13,0.68,4.42,1.28,12.77-2.41,18.8a25.91,25.91,0,0,0,17.44-17.75,1.29,1.29,0,0,0,0-.16l0.46-3.34C8945.48,213.16,8963.73,193.76,8963.73,170.88Z" transform="translate(-8837.23 -119.25)"/><path class="efa3628e-07e3-492e-bd79-a065b6a6bfdd" d="M8900.48,222.5c-34.93,0-63.25-23.11-63.25-51.62s28.32-51.62,63.25-51.62V222.5Z" transform="translate(-8837.23 -119.25)"/><path class="da0b0dc1-a177-4771-8c10-6d0808e4e0ac" d="M8912.21,170.9h-7.67v27.35h-11.36V170.9h-5.41v-9.66h5.41V155c0-4.48,2.12-11.47,11.47-11.47l8.42,0v9.38h-6.11a2.31,2.31,0,0,0-2.41,2.63v5.68h8.67Z" transform="translate(-8837.23 -119.25)"/><circle class="bdf0dc34-05a8-43fc-814d-6ee65cf3f071" cx="107.92" cy="82.27" r="27.67"/><path class="f86ff711-a197-492d-be5c-71cbb4b54ec7" d="M8945.16,229.19a27.67,27.67,0,0,0,0-55.35v55.35Z" transform="translate(-8837.23 -119.25)"/><path class="1aa9212c-073c-464b-b27c-38fcd7654619" d="M8930.91,209.87c0,7.14,6.38,12.93,14.24,12.93s14.24-5.79,14.24-12.93h-28.49Z" transform="translate(-8837.23 -119.25)"/><circle class="1aa9212c-073c-464b-b27c-38fcd7654619" cx="113.03" cy="79.03" r="2.36"/><circle class="1aa9212c-073c-464b-b27c-38fcd7654619" cx="102.81" cy="79.03" r="2.36"/></svg>
