<svg id="48d71349-bef7-42d3-b1cf-4b72b0f3d07b" data-name="Layer 1" xmlns="http://www.w3.org/2000/svg" viewBox="0 0 135.6 121.93"><defs><style>.\31 d2cf0de-35d8-46ea-b55f-c6cd88ba3631{fill:#3a5a99;}.\30 7b3313b-3c0b-4ff2-b873-d90a067f6d59{fill:#3f66a5;}.e1766500-1c69-44d2-8f29-34715f04e2fc{fill:#e8eff7;}.\30 85dc93d-d839-47c9-86b9-e1a08a981cda{fill:#fcc454;}.\36 00c161c-a765-494e-8d1e-d54f0be81d34{fill:#f7bf16;}.\34 6d2d1eb-dbc9-42bc-acef-f35222128ba0{fill:#80620b;}</style></defs><title>fb-sad</title><path class="1d2cf0de-35d8-46ea-b55f-c6cd88ba3631" d="M9289.73,152.88c0-28.51-28.32-51.62-63.25-51.62s-63.25,23.11-63.25,51.63,28.32,51.63,63.25,51.63c1.41,0,2.81-.05,4.2-0.13,0.68,4.42,1.28,12.77-2.41,18.8a25.91,25.91,0,0,0,17.44-17.75,1.29,1.29,0,0,0,0-.16l0.46-3.34C9271.48,195.16,9289.73,175.76,9289.73,152.88Z" transform="translate(-9163.23 -101.25)"/><path class="07b3313b-3c0b-4ff2-b873-d90a067f6d59" d="M9226.48,204.5c-34.93,0-63.25-23.11-63.25-51.62s28.32-51.62,63.25-51.62V204.5Z" transform="translate(-9163.23 -101.25)"/><path class="e1766500-1c69-44d2-8f29-34715f04e2fc" d="M9238.21,152.9h-7.67v27.35h-11.36V152.9h-5.41v-9.66h5.41V137c0-4.48,2.12-11.47,11.47-11.47l8.42,0v9.38h-6.11a2.31,2.31,0,0,0-2.41,2.63v5.68h8.67Z" transform="translate(-9163.23 -101.25)"/><circle class="085dc93d-d839-47c9-86b9-e1a08a981cda" cx="107.92" cy="82.27" r="27.67"/><path class="600c161c-a765-494e-8d1e-d54f0be81d34" d="M9271.16,211.19a27.67,27.67,0,0,0,0-55.35v55.35Z" transform="translate(-9163.23 -101.25)"/><path class="46d2d1eb-dbc9-42bc-acef-f35222128ba0" d="M9285.39,201.28c-0.37-7.13-7-12.58-14.89-12.18s-13.93,6.52-13.56,13.65Z" transform="translate(-9163.23 -101.25)"/><circle class="46d2d1eb-dbc9-42bc-acef-f35222128ba0" cx="113.03" cy="79.03" r="2.36"/><circle class="46d2d1eb-dbc9-42bc-acef-f35222128ba0" cx="102.81" cy="79.03" r="2.36"/></svg>
