<svg id="Layer_1" data-name="Layer 1" xmlns="http://www.w3.org/2000/svg" viewBox="0 0 126.5 121.93"><defs><style>.cls-1{fill:#3a5a99;}.cls-2{fill:#3f66a5;}.cls-3{fill:#e8eff7;}</style></defs><title>facebook</title><path class="cls-1" d="M8963.73,170.88c0-28.51-28.32-51.62-63.25-51.62s-63.25,23.11-63.25,51.63,28.32,51.63,63.25,51.63c1.41,0,2.81-.05,4.2-0.13,0.68,4.42,1.28,12.77-2.41,18.8a25.91,25.91,0,0,0,17.44-17.75,1.29,1.29,0,0,0,0-.16l0.46-3.34C8945.48,213.16,8963.73,193.76,8963.73,170.88Z" transform="translate(-8837.23 -119.25)"/><path class="cls-2" d="M8900.48,222.5c-34.93,0-63.25-23.11-63.25-51.62s28.32-51.62,63.25-51.62V222.5Z" transform="translate(-8837.23 -119.25)"/><path class="cls-3" d="M8912.21,170.9h-7.67v27.35h-11.36V170.9h-5.41v-9.66h5.41V155c0-4.48,2.12-11.47,11.47-11.47l8.42,0v9.38h-6.11a2.31,2.31,0,0,0-2.41,2.63v5.68h8.67Z" transform="translate(-8837.23 -119.25)"/></svg>
