<svg id="Layer_1" data-name="Layer 1" xmlns="http://www.w3.org/2000/svg" viewBox="0 0 126.5 121.93"><defs><style>.cls-1{fill:#00aced;}.cls-2{fill:#1ab5e5;}.cls-3{fill:#e8eff7;}</style></defs><title>Paralax-Campaign-Storyboard-JL</title><path class="cls-1" d="M8328.29,91.88c0-28.51,28.32-51.62,63.25-51.62s63.25,23.11,63.25,51.63-28.32,51.63-63.25,51.63c-1.41,0-2.81-.05-4.2-0.13-0.68,4.42-1.28,12.77,2.41,18.8a25.91,25.91,0,0,1-17.44-17.75,1.29,1.29,0,0,1,0-.16l-0.46-3.34C8346.55,134.16,8328.29,114.76,8328.29,91.88Z" transform="translate(-8328.29 -40.25)"/><path class="cls-2" d="M8391.54,143.5c34.93,0,63.25-23.11,63.25-51.62s-28.32-51.62-63.25-51.62V143.5Z" transform="translate(-8328.29 -40.25)"/><path class="cls-3" d="M8412.93,81.25c0,0.47,0,.95,0,1.42,0,14.58-11.1,31.39-31.39,31.39a31.22,31.22,0,0,1-16.91-5,23.28,23.28,0,0,0,2.63.15,22.11,22.11,0,0,0,13.7-4.72,11,11,0,0,1-10.3-7.66,11.34,11.34,0,0,0,2.07.2,11.12,11.12,0,0,0,2.91-.39,11,11,0,0,1-8.85-10.82V85.73a11,11,0,0,0,5,1.38,11,11,0,0,1-3.41-14.73,31.31,31.31,0,0,0,22.74,11.53,11,11,0,0,1,18.8-10.06,22,22,0,0,0,7-2.68,11.07,11.07,0,0,1-4.85,6.11,22,22,0,0,0,6.34-1.73A22.38,22.38,0,0,1,8412.93,81.25Z" transform="translate(-8328.29 -40.25)"/></svg>
