<svg id="a4205a49-175b-46e2-8446-834ca157b887" data-name="Layer 1" xmlns="http://www.w3.org/2000/svg" viewBox="0 0 1591.15 536.79"><defs><style>.\34 3e15dd0-dc44-403b-8802-11cac9efe7e8{fill:#fff;}</style></defs><title>layer1</title><path class="43e15dd0-dc44-403b-8802-11cac9efe7e8" d="M-521.56,1178.57c14-73.65,254.26-212,331.13,20,68.87-142,210.87-118,232.87-90-10.12-151.6,310-80,264,40,128-26,248,50,254,100-14-158,324-224,366-74,126.8-40,196,172,82,212,34,82-154,266-360,86-30,87.92-398,112-398-138,0,96-188,364-404,134-68,40-139.82-58-78.91-110-111.09,90-201.09-8-163.09-102C-435.56,1354.57-545.56,1304.57-521.56,1178.57Z" transform="translate(524.95 -1022.59)"/></svg>