<svg id="02765102-6a0e-455d-ad47-b563e5d510bc" data-name="Layer 1" xmlns="http://www.w3.org/2000/svg" viewBox="0 0 1968.1 647.96"><defs><style>.\37 54ceb80-e132-404d-b85e-aca4157528ef{fill:#f9f9f9;}</style></defs><title>layer2</title><path class="754ceb80-e132-404d-b85e-aca4157528ef" d="M-743.81,1288c-26.09-143.37,186.32-259.17,344.21-132.15,22.44-231,543.6-188.27,614.29-12,108.85-121.45,295.72-90.89,288.39-31.16,228.34-262,578.52,14.43,544.85,93,138.39-87.28,221.93,54.86,144.63,116,79.18,33.67-42.8,349.92-254.09,162.88-185.1,179.56-547.59,211.17-614.92,80.24-59.85,48.63-243.52,24.5-217.33-57.8-18.7,97.26-278.89,161.3-342.48,34.11-116,44.89-234.41-99.74-122.19-148.37-94.76,29.92-135.9-16.9-124.68-58C-515.55,1445.15-722.17,1407-743.81,1288Z" transform="translate(746 -996.95)"/></svg>