<svg id="690532f7-34c1-44e3-b2ec-22dc0a9295f4" data-name="Layer 1" xmlns="http://www.w3.org/2000/svg" viewBox="0 0 2013.45 842.69"><defs><style>.\35 393b630-cbd7-46bd-bd2c-e93c90da6603{fill:#e0e0e0;}</style></defs><title>layer3</title><path class="5393b630-cbd7-46bd-bd2c-e93c90da6603" d="M1222.1,1307.57a125.15,125.15,0,0,0-12.44-2.2c32-47.74-.31-118-67.53-124.69-19.81-59.09-107.75-104.82-167.16-88.12-39.48-31.13-91.64-59.72-149.37-75.46C746.17,761.27,325,901.73,307.16,1028.27c3.52-128-239.83-159.14-322.23-18.94-93.25-17.42-195.86-13.59-271.73,16.83-84-121.82-327.16-48.67-301.62,80.53-96.73,16.86-171.5,94.86-155.39,183.36a114.39,114.39,0,0,0,21.27,48.18c-38.63,66.58,81.52,184,231.84,116.66-49.67,80,71.06,141.1,165.09,89a129.78,129.78,0,0,0,44.54,7.79c3.65,52.82,48.51,122.35,175.21,82.84,2.49,69.47,198.91,131.62,275.38,24.4,58.82,30.58,193.6,23.08,243.55-26.73,38,11.81,84.32,16.48,134.42,14.15,22.24,40.12,111.64,58.4,172.35,40C794,1663.93,794,1600.79,794,1600.79c15.48,65.4,87,42.57,96.32-22.89,0,0,119.08,98.85,195.15-34a122.79,122.79,0,0,0,32.76-10C1233.85,1589,1326.21,1331.73,1222.1,1307.57Z" transform="translate(746 -874.01)"/></svg>