<svg id="5ade1f79-5902-4da9-b694-552e5eaaf081" data-name="People" xmlns="http://www.w3.org/2000/svg" xmlns:xlink="http://www.w3.org/1999/xlink" viewBox="0 0 130.51 337.34"><defs><style>.\31 d371fbf-49ee-493f-a942-58611406871f{fill:none;}.\31 00ec028-3e99-4246-adbc-5535bed72173,.f6dbf801-2c86-4a61-9b0b-bbc11f61dc9c{fill:#495b66;}.\31 00ec028-3e99-4246-adbc-5535bed72173{opacity:0.2;}.f6dbf801-2c86-4a61-9b0b-bbc11f61dc9c{opacity:0.4;}.f40c6411-1000-43ed-985f-a302ced03030{fill:#39464e;}.aa68d1fe-7d18-48ab-a34c-04231e2e5af9{fill:#dadde0;}.\35 70b22bc-6e65-49f4-bc4e-27ea0da8662b{fill:#f1f3f5;}.\37 2268acb-735f-49c8-a94a-6820f3b7dd7a,.c4f6de31-3e62-4e4a-81fd-96bbb3f7cc24{fill:#8fa3b0;}.\32 d51dbad-8057-4e58-b0ae-85f0ff571d66{fill:#b5c0c8;}.\37 2268acb-735f-49c8-a94a-6820f3b7dd7a{opacity:0.5;}.a7817a25-b6f4-4d78-a5d5-f2a1b89c7678{clip-path:url(#a5fd820e-3277-41f2-b201-0326af24c258);}.dcc072b7-3ed7-4bfc-815c-8d736d4decd9{fill:#33302e;}.\37 fb48044-b5ec-4529-9dee-77c7b2ca8d7e{fill:#cbcac8;}.\35 b48a3e3-d610-4dab-8b44-0e5efde7e0bf{fill:#fff;}</style><clipPath id="a5fd820e-3277-41f2-b201-0326af24c258" transform="translate(-524.21 -945.64)"><path class="1d371fbf-49ee-493f-a942-58611406871f" d="M588.8,1018.55h0.07c-9.54,0-17.9-11.25-18.25-21.22l-0.9-11.77c0-9.66,6-17.57,15.55-17.57h7.12c9.54,0,15.55,7.91,15.55,17.57L607,997.33C606.34,1007.07,598.34,1018.55,588.8,1018.55Z"/></clipPath></defs><title>female</title><ellipse class="100ec028-3e99-4246-adbc-5535bed72173" cx="65.25" cy="327.93" rx="65.25" ry="9.41"/><ellipse class="f6dbf801-2c86-4a61-9b0b-bbc11f61dc9c" cx="65.25" cy="326.93" rx="47.37" ry="6.83"/><path class="f40c6411-1000-43ed-985f-a302ced03030" d="M604.47,998.75s5.15,8.53,6.28,9.44C610.76,1008.19,606,1002.85,604.47,998.75Z" transform="translate(-524.21 -945.64)"/><path class="f40c6411-1000-43ed-985f-a302ced03030" d="M573.91,1000.12s-5.15,8.53-6.28,9.44C567.62,1009.56,572.34,1004.21,573.91,1000.12Z" transform="translate(-524.21 -945.64)"/><path class="f40c6411-1000-43ed-985f-a302ced03030" d="M572.85,1003.3s-2.16,5.23-3.18,7.51a27.3,27.3,0,0,0,3.93-6.82Z" transform="translate(-524.21 -945.64)"/><path class="aa68d1fe-7d18-48ab-a34c-04231e2e5af9" d="M577.95,1017.35s9.07-2.13,22.55,0c0,0,1,4.35.71,5s-25.76,0-25.76,0Z" transform="translate(-524.21 -945.64)"/><polygon class="570b22bc-6e65-49f4-bc4e-27ea0da8662b" points="99.6 188.35 105.51 188.39 98.46 106.39 91.94 106.95 99.6 188.35"/><path class="c4f6de31-3e62-4e4a-81fd-96bbb3f7cc24" d="M629.22,1145.91s-0.84,3.48-.9,3.54a5.12,5.12,0,0,1-.8.25l-0.33-.56,0.61-4.53-0.64-4.58-1.13-2.5v-1.18l1-1.27,2.11,2.28,1.16,3.4-0.19,2.89Z" transform="translate(-524.21 -945.64)"/><polygon class="2d51dbad-8057-4e58-b0ae-85f0ff571d66" points="104.74 208.85 103.51 208.18 104.06 204.35 104.18 198.88 103.18 194.25 101.58 191.11 103.39 189.83 107.26 197.08 105.78 209.11 104.74 208.85"/><polygon class="aa68d1fe-7d18-48ab-a34c-04231e2e5af9" points="106.12 210.95 104.01 210.74 104.61 204.69 104.53 198.7 103.45 194.22 101.68 191.04 101.94 188.35 106.03 190 106.12 210.95"/><polygon class="570b22bc-6e65-49f4-bc4e-27ea0da8662b" points="105.21 184.91 108.14 192.95 108.48 199.02 108.35 204.86 107.03 211.89 104.92 211.65 105.47 204.36 105.27 198.64 104.1 194.16 102.36 190.74 101.84 193.22 102.72 200.92 102.21 202.69 100.26 202.4 98.78 196.37 97.79 190.62 99.17 182.96 105.21 184.91"/><polygon class="570b22bc-6e65-49f4-bc4e-27ea0da8662b" points="30.6 189.26 24.58 188.67 30.4 105.33 38.07 106.29 30.6 189.26"/><path class="c4f6de31-3e62-4e4a-81fd-96bbb3f7cc24" d="M550.26,1145.35s0.94,3.45,1,3.52a5.12,5.12,0,0,0,.8.23l0.32-.57-0.74-4.51,0.51-4.6,1.06-2.53,0-1.18-1-1.24-2,2.34-1.06,3.43,0.28,2.88Z" transform="translate(-524.21 -945.64)"/><polygon class="2d51dbad-8057-4e58-b0ae-85f0ff571d66" points="26.56 208.28 27.77 207.58 27.11 203.77 26.83 198.3 27.7 193.64 29.2 190.45 27.36 189.23 23.7 196.59 25.53 208.57 26.56 208.28"/><polygon class="aa68d1fe-7d18-48ab-a34c-04231e2e5af9" points="25.24 210.42 27.34 210.15 26.57 204.12 26.48 198.13 27.42 193.62 29.11 190.39 28.76 187.71 24.73 189.47 25.24 210.42"/><polygon class="570b22bc-6e65-49f4-bc4e-27ea0da8662b" points="24.88 184.82 22.71 192.48 22.54 198.56 22.84 204.4 24.36 211.38 26.46 211.09 25.7 203.82 25.74 198.09 26.78 193.58 28.41 190.11 29 192.58 28.35 200.3 28.91 202.05 30.85 201.71 32.16 195.63 32.35 190.33 30.73 180.87 24.88 184.82"/><polygon class="c4f6de31-3e62-4e4a-81fd-96bbb3f7cc24" points="73.77 316.7 83.92 316.83 89.03 181.44 40.89 181.44 47.54 316.12 57.06 316.12 64.43 199.49 66.86 199.49 73.77 316.7"/><path class="2d51dbad-8057-4e58-b0ae-85f0ff571d66" d="M630,1126.35l-8.11-84.41c-0.92-9.73-3.42-18.32-9-19.4l-23.51-3.64-25.36,3.64c-5.77,1.16-8.17,9.67-9.1,19.33l-6.49,84.9,8,0,6.62-70.44,1.51,71.66h49.14l0.23-71.66,8.24,70.08H630Z" transform="translate(-524.21 -945.64)"/><path class="570b22bc-6e65-49f4-bc4e-27ea0da8662b" d="M577.13,1020.78c0.07-.35,2.46-0.37,5.36-1,0,0,14.42-.1,18.11.81,0,0-7.92,10.89-11.89,13.34C588.72,1033.93,576.22,1025.73,577.13,1020.78Z" transform="translate(-524.21 -945.64)"/><path class="570b22bc-6e65-49f4-bc4e-27ea0da8662b" d="M598.12,1022.79l0.74-9.64H579.3l1,8.9s0.54,2.6,8.77,2.6S598.12,1022.79,598.12,1022.79Z" transform="translate(-524.21 -945.64)"/><path class="72268acb-735f-49c8-a94a-6820f3b7dd7a" d="M579.67,1016.42s4,4.17,9.4,4.17,9.6-4.5,9.6-4.5l0.37-3H579.1Z" transform="translate(-524.21 -945.64)"/><path class="aa68d1fe-7d18-48ab-a34c-04231e2e5af9" d="M569.32,996.22h0c0.73-.06,1.26-1,1.16-2.16l-0.65-7.68c-0.09-1.12-.77-2-1.51-1.93h0c-0.73.06-1.26,1-1.16,2.16l0.65,7.68C567.91,995.42,568.59,996.28,569.32,996.22Z" transform="translate(-524.21 -945.64)"/><path class="aa68d1fe-7d18-48ab-a34c-04231e2e5af9" d="M608.68,996.22h0c-0.73-.06-1.26-1-1.16-2.16l0.65-7.68c0.09-1.12.77-2,1.51-1.93h0c0.73,0.06,1.26,1,1.16,2.16l-0.65,7.68C610.09,995.42,609.41,996.28,608.68,996.22Z" transform="translate(-524.21 -945.64)"/><path class="aa68d1fe-7d18-48ab-a34c-04231e2e5af9" d="M588.76,1018.55h0.07c-9.54,0-17.9-11.25-18.25-21.22l-0.9-11.77c0-9.66,6-17.57,15.55-17.57h7.12c9.54,0,15.55,7.91,15.55,17.57L607,997.33C606.3,1007.07,598.3,1018.55,588.76,1018.55Z" transform="translate(-524.21 -945.64)"/><g class="a7817a25-b6f4-4d78-a5d5-f2a1b89c7678"><polygon class="570b22bc-6e65-49f4-bc4e-27ea0da8662b" points="83.73 80.11 64.4 80.57 64.4 21.81 83.73 21.36 83.73 80.11"/></g><path class="dcc072b7-3ed7-4bfc-815c-8d736d4decd9" d="M75,314.32h8.83a4.38,4.38,0,0,1,4.38,4.38v7a2.66,2.66,0,0,1-2.66,2.66H73.31a2.66,2.66,0,0,1-2.66-2.66v-7A4.38,4.38,0,0,1,75,314.32Z"/><rect class="7fb48044-b5ec-4529-9dee-77c7b2ca8d7e" x="70.65" y="324.41" width="17.58" height="4.12"/><path class="dcc072b7-3ed7-4bfc-815c-8d736d4decd9" d="M47.39,314.25h8.83a4.38,4.38,0,0,1,4.38,4.38v7a2.66,2.66,0,0,1-2.66,2.66H45.67A2.66,2.66,0,0,1,43,325.66v-7a4.38,4.38,0,0,1,4.38-4.38Z"/><rect class="7fb48044-b5ec-4529-9dee-77c7b2ca8d7e" x="43.01" y="324.34" width="17.58" height="4.12"/><path id="d83b5843-2179-4d17-8e4b-b3eb2b6c07ca" data-name="Hair" class="f40c6411-1000-43ed-985f-a302ced03030" d="M567.75,984.45c0.32,2.45,2.54,9.07,2.66,7.73,0.4-1.11-.39-8.13.68-8.62s2-1.71,3.1-2a21.15,21.15,0,0,0,12.47-9.83,12.42,12.42,0,0,0,5,4.67c1.89,0.91,3.61,1.07,5.38,2.39,3,2.25,6.49,6.17,7.08,10.08l-0.89-5.94c2.5,4.22,3.39,12.33,3.73,17.22,3-5.56,6.9-17.74,3.91-25.42-2.42-6.21-5.37-11.28-11.94-13.25a25.38,25.38,0,0,0-12.65-1c-3.22.58-7.4,1.92-10.38,2.56-5.37,1.17-11.46,16-8.54,25.51Z" transform="translate(-524.21 -945.64)"/><g id="776f8762-6307-4477-b7ca-4ab2c94eb16d" data-name="Bun"><path class="f40c6411-1000-43ed-985f-a302ced03030" d="M587.43,958.22a6.65,6.65,0,0,0,3.7,4,15,15,0,0,0,5.44,1.15,24.68,24.68,0,0,0,6.32-.3,8.21,8.21,0,0,0,3.57-1.48c1.93-1.54,2.6-4.21,2.67-6.69,0.09-3-.67-6.23-3.06-7.93a8.2,8.2,0,0,0-4.43-1.32c-1.56-.07-3.12.13-4.68,0.19-2,.09-4.1,0-5.81,1a8.16,8.16,0,0,0-2.72,3.05,11.67,11.67,0,0,0-1.58,4.27,6.41,6.41,0,0,0,.9,4.39" transform="translate(-524.21 -945.64)"/></g><path class="f40c6411-1000-43ed-985f-a302ced03030" d="M599.91,962.25s9.92,0.92,11.33.55C611.23,962.8,604.13,963.42,599.91,962.25Z" transform="translate(-524.21 -945.64)"/><path class="f40c6411-1000-43ed-985f-a302ced03030" d="M592.12,959.52s-9.92.92-11.33,0.55C580.8,960.07,587.9,960.7,592.12,959.52Z" transform="translate(-524.21 -945.64)"/><path class="f40c6411-1000-43ed-985f-a302ced03030" d="M601.65,961.14s6.5,3.92,7.48,4.14A35.68,35.68,0,0,1,601.65,961.14Z" transform="translate(-524.21 -945.64)"/><path class="aa68d1fe-7d18-48ab-a34c-04231e2e5af9" d="M586.62,1026.26s1.39,5.76,2.25,7.32c0,0,2.31-5.15,2-7.41l5.16,3.91-7.13,6.88-6.38-6.43Z" transform="translate(-524.21 -945.64)"/><path class="5b48a3e3-d610-4dab-8b44-0e5efde7e0bf" d="M600.49,1017.35a15,15,0,0,1-9.65,8.83l1.51,4.29a0.88,0.88,0,0,0,1.32.45c2.27-1.49,7.8-5.58,7.88-10.08Z" transform="translate(-524.21 -945.64)"/><path class="5b48a3e3-d610-4dab-8b44-0e5efde7e0bf" d="M577.95,1017.35s-1.05,4.91,8.67,8.92l-1.22,4.05a1,1,0,0,1-1.44.54c-2.35-1.52-7.76-5.43-8-9.59Z" transform="translate(-524.21 -945.64)"/></svg>
