<svg id="07402400-4ee3-47a4-9aa4-fcb051aeefee" data-name="People" xmlns="http://www.w3.org/2000/svg" xmlns:xlink="http://www.w3.org/1999/xlink" viewBox="0 0 130.51 337.95"><defs><style>.a0084756-e898-4b4b-9c66-a4a0c2fd22b3{fill:none;}.\37 f340f14-9e1a-47ed-a59e-75b93858efdd,.adac26cb-2505-48e7-9e77-bc3034c51513,.c741478d-0f93-4f45-bbfb-25deb24865f9{fill:#046466;}.c741478d-0f93-4f45-bbfb-25deb24865f9{opacity:0.2;}.\37 f340f14-9e1a-47ed-a59e-75b93858efdd{opacity:0.4;}.fad83591-6ec5-4379-9f12-cfc300a9be09{fill:#f6bf19;}.\30 961dcf3-07dc-414e-bc21-01ff3900f7e5{fill:#efd3bf;}.ddb2338e-26d0-41a5-a830-350b408ff597{fill:#a68f86;}.\39 3b4f342-b4f6-48d9-8365-8b607ae43b09{fill:#bba69b;}.ee49d5e8-3aae-4661-bd02-81a2e9c6a409{fill:#d3bcae;}.\38 6bb6be9-8b05-4c7f-a69b-7aa63360b8d3{fill:#d5b8a5;}.bff1a68d-e14e-4c38-bf7d-1a218cb250b7{fill:#dfc4b1;}.fb4c5095-2997-4f29-bc51-491f58c20337{clip-path:url(#02a70d05-a008-4745-b5f1-fa7913065496);}.\33 4cb99c1-5a8e-410e-9485-5d3a015ca6a4{fill:#f0dfd5;}.baecb58e-36f3-4883-bfbf-46a1564da168{fill:#33302e;}.\32 7a4531e-b6cb-4ffb-aa44-424a2e7fadb6{fill:#cbcac8;}.\32 82d7f69-9916-487c-ba9a-2be7ae5d4710{fill:#30bdbb;}.\39 96bbc6e-55fa-4335-b571-cc6a5bd32d37{fill:#098e8a;}.a7b15bd8-eb5f-423a-9346-d0a5468beb1f{fill:#e5f3f4;}</style><clipPath id="02a70d05-a008-4745-b5f1-fa7913065496" transform="translate(-524.21 -1715.25)"><path class="a0084756-e898-4b4b-9c66-a4a0c2fd22b3" d="M588.36,1788.16h0.07c-9.54,0-17.9-11.25-18.25-21.22l-0.9-11.77c0-9.66,6-17.57,15.55-17.57H592c9.54,0,15.55,7.91,15.55,17.57l-0.9,11.77C605.91,1776.69,597.91,1788.16,588.36,1788.16Z"/></clipPath></defs><title>female1</title><ellipse class="c741478d-0f93-4f45-bbfb-25deb24865f9" cx="65.25" cy="328.53" rx="65.25" ry="9.41"/><path class="7f340f14-9e1a-47ed-a59e-75b93858efdd" d="M636.84,2041.79c0,3.77-21.21,6.83-47.37,6.83s-47.37-3.06-47.37-6.83,21.21-6.83,47.37-6.83S636.84,2040.68,636.84,2041.79Z" transform="translate(-524.21 -1715.25)"/><path class="fad83591-6ec5-4379-9f12-cfc300a9be09" d="M604,1768.37s5.15,8.53,6.28,9.44C610.33,1777.81,605.61,1772.46,604,1768.37Z" transform="translate(-524.21 -1715.25)"/><path class="fad83591-6ec5-4379-9f12-cfc300a9be09" d="M573.47,1769.73s-5.15,8.53-6.28,9.44C567.19,1779.17,571.91,1773.83,573.47,1769.73Z" transform="translate(-524.21 -1715.25)"/><path class="fad83591-6ec5-4379-9f12-cfc300a9be09" d="M572.42,1772.92s-2.16,5.23-3.18,7.51a27.3,27.3,0,0,0,3.93-6.82Z" transform="translate(-524.21 -1715.25)"/><path class="adac26cb-2505-48e7-9e77-bc3034c51513" d="M577.51,1787s9.07-2.13,22.55,0c0,0,1,4.35.71,5s-25.76,0-25.76,0Z" transform="translate(-524.21 -1715.25)"/><polygon class="0961dcf3-07dc-414e-bc21-01ff3900f7e5" points="99.17 188.35 105.08 188.39 98.02 106.39 91.5 106.95 99.17 188.35"/><path class="ddb2338e-26d0-41a5-a830-350b408ff597" d="M628.79,1915.53s-0.84,3.48-.9,3.54a5.12,5.12,0,0,1-.8.25l-0.33-.56,0.61-4.53-0.64-4.58-1.13-2.5V1906l1-1.27,2.11,2.28,1.16,3.4-0.19,2.89Z" transform="translate(-524.21 -1715.25)"/><polygon class="93b4f342-b4f6-48d9-8365-8b607ae43b09" points="104.31 208.85 103.08 208.18 103.62 204.35 103.75 198.88 102.75 194.25 101.15 191.11 102.96 189.83 106.83 197.08 105.34 209.11 104.31 208.85"/><polygon class="ee49d5e8-3aae-4661-bd02-81a2e9c6a409" points="105.69 210.95 103.58 210.74 104.18 204.69 104.1 198.7 103.02 194.22 101.25 191.04 101.51 188.35 105.59 190 105.69 210.95"/><polygon class="0961dcf3-07dc-414e-bc21-01ff3900f7e5" points="104.78 184.91 107.7 192.95 108.05 199.02 107.92 204.86 106.59 211.89 104.49 211.65 105.04 204.36 104.83 198.64 103.67 194.16 101.93 190.74 101.41 193.22 102.29 200.92 101.78 202.69 99.83 202.4 98.34 196.37 97.36 190.62 98.74 182.96 104.78 184.91"/><polygon class="0961dcf3-07dc-414e-bc21-01ff3900f7e5" points="30.17 189.26 24.14 188.67 29.96 105.33 37.64 106.29 30.17 189.26"/><path class="ddb2338e-26d0-41a5-a830-350b408ff597" d="M549.83,1915s0.94,3.45,1,3.52a5.12,5.12,0,0,0,.8.23l0.32-.57-0.74-4.51,0.51-4.6,1.06-2.53,0-1.18-1-1.24-2,2.34-1.06,3.43,0.28,2.88Z" transform="translate(-524.21 -1715.25)"/><polygon class="93b4f342-b4f6-48d9-8365-8b607ae43b09" points="26.13 208.28 27.34 207.58 26.68 203.77 26.4 198.3 27.27 193.64 28.77 190.45 26.93 189.23 23.27 196.59 25.1 208.57 26.13 208.28"/><polygon class="ee49d5e8-3aae-4661-bd02-81a2e9c6a409" points="24.81 210.42 26.91 210.15 26.13 204.12 26.04 198.13 26.99 193.62 28.68 190.39 28.33 187.71 24.3 189.47 24.81 210.42"/><polygon class="0961dcf3-07dc-414e-bc21-01ff3900f7e5" points="24.45 184.82 22.28 192.48 22.11 198.56 22.41 204.4 23.93 211.38 26.03 211.09 25.27 203.82 25.31 198.09 26.34 193.58 27.98 190.11 28.57 192.58 27.91 200.3 28.48 202.05 30.42 201.71 31.73 195.63 31.92 190.33 30.3 180.87 24.45 184.82"/><polygon points="73.34 316.7 83.48 316.83 88.6 181.44 40.46 181.44 47.1 316.12 56.63 316.12 64 199.49 66.43 199.49 73.34 316.7"/><path class="adac26cb-2505-48e7-9e77-bc3034c51513" d="M629.59,1896l-8.11-84.41c-0.92-9.73-3.42-18.32-9-19.4L589,1788.51l-25.36,3.64c-5.77,1.16-8.17,9.67-9.1,19.33l-6.49,84.9,8,0,6.62-70.44,1.51,71.66h49.14l0.23-71.66,8.24,70.08h7.77Z" transform="translate(-524.21 -1715.25)"/><path class="0961dcf3-07dc-414e-bc21-01ff3900f7e5" d="M576.74,1790.83c0.07-.35,2.45-0.63,5.35-1.25,0,0,14.39-.28,18.09.63,0,0-7.92,10.89-11.89,13.34C588.29,1803.54,575.83,1795.78,576.74,1790.83Z" transform="translate(-524.21 -1715.25)"/><path class="0961dcf3-07dc-414e-bc21-01ff3900f7e5" d="M597.68,1792.4l0.74-9.64H578.87l1,8.9s0.54,2.6,8.77,2.6S597.68,1792.4,597.68,1792.4Z" transform="translate(-524.21 -1715.25)"/><path class="86bb6be9-8b05-4c7f-a69b-7aa63360b8d3" d="M579.24,1786s4,4.17,9.4,4.17,9.6-4.5,9.6-4.5l0.37-3H578.67Z" transform="translate(-524.21 -1715.25)"/><path class="bff1a68d-e14e-4c38-bf7d-1a218cb250b7" d="M568.89,1765.84h0c0.73-.06,1.26-1,1.16-2.16L569.4,1756c-0.09-1.12-.77-2-1.51-1.93h0c-0.73.06-1.26,1-1.16,2.16l0.65,7.68C567.48,1765,568.15,1765.9,568.89,1765.84Z" transform="translate(-524.21 -1715.25)"/><path class="bff1a68d-e14e-4c38-bf7d-1a218cb250b7" d="M608.24,1765.84h0c-0.73-.06-1.26-1-1.16-2.16l0.65-7.68c0.09-1.12.77-2,1.51-1.93h0c0.73,0.06,1.26,1,1.16,2.16l-0.65,7.68C609.66,1765,609,1765.9,608.24,1765.84Z" transform="translate(-524.21 -1715.25)"/><path class="0961dcf3-07dc-414e-bc21-01ff3900f7e5" d="M588.32,1788.16h0.07c-9.54,0-17.9-11.25-18.25-21.22l-0.9-11.77c0-9.66,6-17.57,15.55-17.57h7.12c9.54,0,15.55,7.91,15.55,17.57l-0.9,11.77C605.87,1776.69,597.87,1788.16,588.32,1788.16Z" transform="translate(-524.21 -1715.25)"/><g class="fb4c5095-2997-4f29-bc51-491f58c20337"><polygon class="34cb99c1-5a8e-410e-9485-5d3a015ca6a4" points="83.3 80.11 63.97 80.57 63.97 21.81 83.3 21.36 83.3 80.11"/></g><path class="baecb58e-36f3-4883-bfbf-46a1564da168" d="M74.59,314.32h8.83a4.38,4.38,0,0,1,4.38,4.38v7a2.66,2.66,0,0,1-2.66,2.66H72.87a2.66,2.66,0,0,1-2.66-2.66v-7a4.38,4.38,0,0,1,4.38-4.38Z"/><rect class="27a4531e-b6cb-4ffb-aa44-424a2e7fadb6" x="70.21" y="324.41" width="17.58" height="4.12"/><path class="baecb58e-36f3-4883-bfbf-46a1564da168" d="M47,314.25h8.83a4.38,4.38,0,0,1,4.38,4.38v7a2.66,2.66,0,0,1-2.66,2.66H45.24a2.66,2.66,0,0,1-2.66-2.66v-7A4.38,4.38,0,0,1,47,314.25Z"/><rect class="27a4531e-b6cb-4ffb-aa44-424a2e7fadb6" x="42.58" y="324.34" width="17.58" height="4.12"/><path id="c365ea32-5cd1-4040-be19-60563080f7b0" data-name="Hair" class="fad83591-6ec5-4379-9f12-cfc300a9be09" d="M567.31,1754.07c0.32,2.45,2.54,9.07,2.66,7.73,0.4-1.11-.39-8.13.68-8.62s2-1.71,3.1-2a21.15,21.15,0,0,0,12.47-9.83,12.42,12.42,0,0,0,5,4.67c1.89,0.91,3.61,1.07,5.38,2.39,3,2.25,6.49,6.17,7.08,10.08l-0.89-5.94c2.5,4.22,3.39,12.33,3.73,17.22,3-5.56,6.9-17.74,3.91-25.42-2.42-6.21-5.37-11.28-11.94-13.25a25.38,25.38,0,0,0-12.65-1c-3.22.58-7.4,1.92-10.38,2.56-5.37,1.17-11.46,16-8.54,25.51Z" transform="translate(-524.21 -1715.25)"/><g id="59ea4f0c-cc1c-4baa-9d0c-0fb8268f4ec3" data-name="Bun"><path class="fad83591-6ec5-4379-9f12-cfc300a9be09" d="M587,1727.84a6.65,6.65,0,0,0,3.7,4,15,15,0,0,0,5.44,1.15,24.68,24.68,0,0,0,6.32-.3,8.21,8.21,0,0,0,3.57-1.48c1.93-1.54,2.6-4.21,2.67-6.69,0.09-3-.67-6.23-3.06-7.93a8.2,8.2,0,0,0-4.43-1.32c-1.56-.07-3.12.13-4.68,0.19-2,.09-4.1,0-5.81,1a8.16,8.16,0,0,0-2.72,3.05,11.67,11.67,0,0,0-1.58,4.27,6.41,6.41,0,0,0,.9,4.39" transform="translate(-524.21 -1715.25)"/></g><path class="fad83591-6ec5-4379-9f12-cfc300a9be09" d="M599.47,1731.87s9.92,0.92,11.33.55C610.8,1732.42,603.7,1733,599.47,1731.87Z" transform="translate(-524.21 -1715.25)"/><path class="fad83591-6ec5-4379-9f12-cfc300a9be09" d="M591.69,1729.14s-9.92.92-11.33,0.55C580.36,1729.69,587.47,1730.31,591.69,1729.14Z" transform="translate(-524.21 -1715.25)"/><path class="fad83591-6ec5-4379-9f12-cfc300a9be09" d="M601.22,1730.76s6.5,3.92,7.48,4.14A35.68,35.68,0,0,1,601.22,1730.76Z" transform="translate(-524.21 -1715.25)"/><path class="282d7f69-9916-487c-ba9a-2be7ae5d4710" d="M586.18,1795.88s1.39,5.76,2.25,7.32c0,0,2.31-5.15,2-7.41l5.16,3.91-7.13,6.88-6.38-6.43Z" transform="translate(-524.21 -1715.25)"/><path class="996bbc6e-55fa-4335-b571-cc6a5bd32d37" d="M600.06,1787a15,15,0,0,1-9.65,8.83l1.51,4.29a0.88,0.88,0,0,0,1.32.45c2.27-1.49,7.8-5.58,7.88-10.08Z" transform="translate(-524.21 -1715.25)"/><path class="996bbc6e-55fa-4335-b571-cc6a5bd32d37" d="M577.51,1787s-1.05,4.91,8.67,8.92l-1.22,4.05a1,1,0,0,1-1.44.54c-2.35-1.52-7.76-5.43-8-9.59Z" transform="translate(-524.21 -1715.25)"/><circle class="a7b15bd8-eb5f-423a-9346-d0a5468beb1f" cx="71.79" cy="94.04" r="0.64"/><circle class="a7b15bd8-eb5f-423a-9346-d0a5468beb1f" cx="594.93" cy="1810.98" r="0.64" transform="translate(-741.3 -1628.86) rotate(-7.03)"/><circle class="a7b15bd8-eb5f-423a-9346-d0a5468beb1f" cx="596.59" cy="1807.38" r="0.64" transform="translate(-922.16 -1530.66) rotate(-13.23)"/><circle class="a7b15bd8-eb5f-423a-9346-d0a5468beb1f" cx="593.51" cy="1812.32" r="0.64" transform="translate(-923.37 -1531.23) rotate(-13.23)"/><circle class="a7b15bd8-eb5f-423a-9346-d0a5468beb1f" cx="597.75" cy="1799.3" r="0.64" transform="translate(-1138.83 -1373.68) rotate(-21.37)"/><circle class="a7b15bd8-eb5f-423a-9346-d0a5468beb1f" cx="597.41" cy="1801.18" r="0.64" transform="translate(-1309 -1214.34) rotate(-28.4)"/><circle class="a7b15bd8-eb5f-423a-9346-d0a5468beb1f" cx="597.24" cy="1803.26" r="0.64" transform="translate(-1310 -1214.17) rotate(-28.4)"/><circle class="a7b15bd8-eb5f-423a-9346-d0a5468beb1f" cx="598.39" cy="1797.58" r="0.64" transform="translate(-1439.27 -1057.33) rotate(-34.61)"/><circle class="a7b15bd8-eb5f-423a-9346-d0a5468beb1f" cx="596.88" cy="1805.26" r="0.64" transform="translate(-1443.9 -1056.83) rotate(-34.61)"/><circle class="a7b15bd8-eb5f-423a-9346-d0a5468beb1f" cx="589.47" cy="1813.48" r="0.64" transform="translate(-916.93 -1536.25) rotate(-13)"/><circle class="a7b15bd8-eb5f-423a-9346-d0a5468beb1f" cx="587.94" cy="1813.43" r="0.64" transform="matrix(0.94, -0.34, 0.34, 0.94, -1109.59, -1404.33)"/><circle class="a7b15bd8-eb5f-423a-9346-d0a5468beb1f" cx="586.39" cy="1813.3" r="0.64" transform="translate(-1109.64 -1404.87) rotate(-20.02)"/><circle class="a7b15bd8-eb5f-423a-9346-d0a5468beb1f" cx="591.21" cy="1813.33" r="0.64" transform="translate(-1264.8 -1267.21) rotate(-26.23)"/><circle class="a7b15bd8-eb5f-423a-9346-d0a5468beb1f" cx="584.53" cy="1812.68" r="0.64" transform="translate(-1265.2 -1270.23) rotate(-26.23)"/><circle class="a7b15bd8-eb5f-423a-9346-d0a5468beb1f" cx="581.63" cy="1808.66" r="0.64" transform="translate(-710.91 -1644.18) rotate(-6.03)"/><circle class="a7b15bd8-eb5f-423a-9346-d0a5468beb1f" cx="582.18" cy="1810.08" r="0.64" transform="translate(-1762.01 645.33) rotate(-89)"/><circle class="a7b15bd8-eb5f-423a-9346-d0a5468beb1f" cx="583.02" cy="1811.62" r="0.64" transform="translate(-1762.72 647.68) rotate(-89)"/><circle class="a7b15bd8-eb5f-423a-9346-d0a5468beb1f" cx="580.8" cy="1807.05" r="0.64" transform="translate(-1047.18 -1452.37) rotate(-17.74)"/><circle class="a7b15bd8-eb5f-423a-9346-d0a5468beb1f" cx="578.87" cy="1799.77" r="0.64" transform="translate(-1834.14 166.46) rotate(-74.65)"/><circle class="a7b15bd8-eb5f-423a-9346-d0a5468beb1f" cx="579.18" cy="1801.82" r="0.64" transform="translate(-1831.68 -63.68) rotate(-67.63)"/><circle class="a7b15bd8-eb5f-423a-9346-d0a5468beb1f" cx="579.39" cy="1803.66" r="0.64" transform="translate(-1833.25 -62.34) rotate(-67.63)"/><circle class="a7b15bd8-eb5f-423a-9346-d0a5468beb1f" cx="578.55" cy="1797.96" r="0.64" transform="translate(-1801.31 -269.37) rotate(-61.42)"/><circle class="a7b15bd8-eb5f-423a-9346-d0a5468beb1f" cx="580.23" cy="1805.26" r="0.64" transform="translate(-1806.84 -264.08) rotate(-61.42)"/></svg>
