<svg id="b695dfb8-1362-4e0a-a70b-f9bf0088c115" data-name="People" xmlns="http://www.w3.org/2000/svg" xmlns:xlink="http://www.w3.org/1999/xlink" viewBox="0 0 130.51 315.18"><defs><style>.c575f091-bede-4230-a63a-28013908b1f3{fill:none;}.\34 11a77d8-f36e-4296-8da6-06f1d66ffb00,.f9d6bff9-5386-4790-97a9-3437efef5d78{fill:#872b22;}.f9d6bff9-5386-4790-97a9-3437efef5d78{opacity:0.2;}.\34 11a77d8-f36e-4296-8da6-06f1d66ffb00{opacity:0.4;}.\36 31ae4ac-c9f9-419b-a731-cf592be9534f{fill:#cdb389;}.\34 277f100-e5d0-4c90-a666-d4461f0f8097{fill:#776d52;}.\31 5594948-c1a6-460d-bca5-1b0177a33ec1{fill:#928364;}.f79f61f3-3761-4ee1-a41a-52b8e442ab5d{fill:#a99673;}.\39 6f6eb9d-1c5b-45a2-8b07-6424e16ebc34{fill:#231f20;}.ece9e5a2-9680-48b4-95fd-bead68892b4e{fill:#2a2c44;}.a8245545-7e6c-4c27-86bc-2218b5f4c208{fill:#364249;}.f9b06a29-76f4-4459-80cd-52087de96c59{fill:#872a23;}.\35 60f0647-a6ce-4797-a1b7-7fd855887fe1{fill:#b19d78;}.\37 91139a0-ff24-4af3-9440-871706c6878e{fill:#b9a47e;}.\34 7a97904-286a-4db5-8bc3-0c976270bb98{clip-path:url(#38b4b0c8-6bf8-44d6-a834-0c23ade73dde);}.\34 cab37a5-216f-48de-a5f6-b892a2a49f8d{fill:#d8c4a7;opacity:0.65;}.f6117d09-81a1-433a-890f-4c23018dbe4c{fill:#9a3028;}.\35 5891890-9aed-49f3-ac71-9c4d9fa164bc{fill:#fff;}.\39 e58e912-44d0-4cc4-8c11-b53dfa54d66e{fill:#ae362d;}.bdd98e44-e739-44b6-9dd0-ba64adeb8599{fill:#2b2d45;}.\33 dfa40fe-6832-4fc7-9795-b641d165613a{fill:#cccbc9;}</style><clipPath id="38b4b0c8-6bf8-44d6-a834-0c23ade73dde" transform="translate(-682.48 -1738.02)"><path class="c575f091-bede-4230-a63a-28013908b1f3" d="M747.51,1796.25h0.08c-9.86,0-18.49-12.35-18.85-23.29L727.81,1760c0-10.61,6.21-19.29,16.06-19.29h7.36c9.86,0,16.06,8.68,16.06,19.29L766.36,1773C765.64,1783.66,757.37,1796.25,747.51,1796.25Z"/></clipPath></defs><title>jenelle</title><ellipse class="f9d6bff9-5386-4790-97a9-3437efef5d78" cx="65.25" cy="305.76" rx="65.25" ry="9.41"/><ellipse class="411a77d8-f36e-4296-8da6-06f1d66ffb00" cx="65.25" cy="304.76" rx="47.37" ry="6.83"/><polygon class="631ae4ac-c9f9-419b-a731-cf592be9534f" points="95.5 172.41 102.97 172.15 101.66 118.98 94.64 118.9 95.5 172.41"/><path class="4277f100-e5d0-4c90-a666-d4461f0f8097" d="M781.88,1921.24s-1.44,3.27-1.51,3.33a4.73,4.73,0,0,1-.8.1l-0.21-.62,1.43-4.36,0.25-4.64-0.6-2.68,0.21-1.17,1.14-1.07,1.56,2.65,0.46,3.57-0.72,2.81Z" transform="translate(-682.48 -1738.02)"/><polygon class="15594948-c1a6-460d-bca5-1b0177a33ec1" points="97.54 191.63 96.51 190.74 97.74 187.06 98.88 181.69 98.81 176.93 97.89 173.53 99.84 172.61 102.12 180.49 98.47 192.07 97.54 191.63"/><polygon class="f79f61f3-3761-4ee1-a41a-52b8e442ab5d" points="98.45 193.96 96.51 193.35 98.2 187.5 99.25 181.58 99.07 176.95 97.99 173.49 98.75 170.88 102.28 173.26 98.45 193.96"/><polygon class="631ae4ac-c9f9-419b-a731-cf592be9534f" points="102.89 168.63 103.72 176.57 102.91 182.63 101.69 188.36 99.13 195.05 97.19 194.43 99.08 187.34 99.95 181.65 99.69 177.02 98.7 173.32 97.74 175.67 97.13 183.43 96.32 185.08 94.53 184.43 94.26 178.2 94.41 172.35 96.82 162.64 102.89 168.63"/><path class="96f6eb9d-1c5b-45a2-8b07-6424e16ebc34" d="M736.67,1742.15c-3.51-1.53-16.67,3.65-14,28.14,0.83,7.67,6.17,21.18,5.92,28.67s13.08,11.16,13.08,11.16l22-4.19s6.84,10.38,4.09-33S736.67,1742.15,736.67,1742.15Z" transform="translate(-682.48 -1738.02)"/><polygon class="ece9e5a2-9680-48b4-95fd-bead68892b4e" points="72.14 295.63 82.46 295.75 91.09 162.43 40.01 162.43 47.45 296.42 57.59 296.42 64.2 179.66 66.64 179.66 72.14 295.63"/><polygon class="631ae4ac-c9f9-419b-a731-cf592be9534f" points="35.53 172.41 28.07 172.15 29.38 118.98 36.4 118.9 35.53 172.41"/><path class="4277f100-e5d0-4c90-a666-d4461f0f8097" d="M714.13,1921.24s1.44,3.27,1.51,3.33a4.73,4.73,0,0,0,.8.1l0.21-.62-1.43-4.36-0.25-4.64,0.6-2.68-0.21-1.17-1.14-1.07-1.56,2.65-0.46,3.57,0.72,2.81Z" transform="translate(-682.48 -1738.02)"/><polygon class="15594948-c1a6-460d-bca5-1b0177a33ec1" points="33.52 191.63 34.55 190.74 33.32 187.06 32.18 181.69 32.26 176.93 33.17 173.53 31.22 172.61 28.94 180.49 32.59 192.07 33.52 191.63"/><polygon class="f79f61f3-3761-4ee1-a41a-52b8e442ab5d" points="32.61 193.96 34.55 193.35 32.86 187.5 31.81 181.58 31.99 176.95 33.07 173.49 32.31 170.88 28.77 173.26 32.61 193.96"/><polygon class="631ae4ac-c9f9-419b-a731-cf592be9534f" points="28.17 168.63 27.34 176.57 28.15 182.63 29.37 188.36 31.93 195.05 33.87 194.43 31.98 187.34 31.11 181.65 31.37 177.02 32.36 173.32 33.32 175.67 33.93 183.43 34.74 185.08 36.52 184.43 36.8 178.2 36.65 172.35 34.24 162.64 28.17 168.63"/><path class="a8245545-7e6c-4c27-86bc-2218b5f4c208" d="M736.35,1796.76c5.4-1.77,16.49-1.73,21.82,0l-1.05,4.59-19.94-.35Z" transform="translate(-682.48 -1738.02)"/><path class="f9b06a29-76f4-4459-80cd-52087de96c59" d="M779.38,1818c-1.2-9.06-2-15-11.23-16.23l-19.86-3-0.36,0-0.36,0-19.86,3c-9.24,1.21-11,7.17-12.23,16.23,0.08-.8-4.59,33.12-4.77,42-0.11,5.09-.28,43.63-0.28,43.63l7.88-.17,1.93-43.47,4.75-35c-1.48,12.8,1.44,28.2.14,41-1.33,13.19-3.58,24.56-3.58,35h52.8c0-10.12-2.92-23.24-3.75-35-0.87-12.18,1.12-22.88.31-41l4.44,35,2.24,43.45,7.88,0.17s-0.75-38.89-.78-43.63C784.61,1851.19,779.38,1818,779.38,1818Z" transform="translate(-682.48 -1738.02)"/><path class="631ae4ac-c9f9-419b-a731-cf592be9534f" d="M757.12,1800.19l-0.44-8.86c-3,2.37-15.75,2.5-18.84,0l-0.43,8.86s1,3.44,7.69,4.08l2.19,14.64,2.19-14.65C756.16,1803.62,757.12,1800.19,757.12,1800.19Z" transform="translate(-682.48 -1738.02)"/><path class="560f0647-a6ce-4797-a1b7-7fd855887fe1" d="M737.67,1794.77s4.17,4.85,9.56,4.85,9.63-4.66,9.63-4.66l-0.12-3.33-19-.36Z" transform="translate(-682.48 -1738.02)"/><rect class="791139a0-ff24-4af3-9440-871706c6878e" x="726.14" y="1762.05" width="4.12" height="11.86" rx="2.06" ry="2.06" transform="translate(-828.76 -1670.42) rotate(-4.83)"/><path class="631ae4ac-c9f9-419b-a731-cf592be9534f" d="M747.47,1796.25h0.08c-9.86,0-18.49-12.35-18.85-23.29L727.77,1760c0-10.61,6.21-19.29,16.06-19.29h7.36c9.86,0,16.06,8.68,16.06,19.29L766.32,1773C765.59,1783.66,757.33,1796.25,747.47,1796.25Z" transform="translate(-682.48 -1738.02)"/><g class="47a97904-286a-4db5-8bc3-0c976270bb98"><polygon class="4cab37a5-216f-48de-a5f6-b892a2a49f8d" points="84.82 66.14 64.85 66.64 64.85 2.13 84.82 1.64 84.82 66.14"/></g><rect class="f6117d09-81a1-433a-890f-4c23018dbe4c" x="27.4" y="162.64" width="9" height="4.54"/><circle class="55891890-9aed-49f3-ac71-9c4d9fa164bc" cx="34.25" cy="164.9" r="1.18"/><rect class="f6117d09-81a1-433a-890f-4c23018dbe4c" x="94.47" y="162.64" width="9" height="4.54"/><circle class="55891890-9aed-49f3-ac71-9c4d9fa164bc" cx="96.65" cy="164.9" r="1.18"/><path class="9e58e912-44d0-4cc4-8c11-b53dfa54d66e" d="M745.09,1804.27s-2.5,4.35-2.17,6.1c-2-.54-8.25-7.52-7.52-10.18l0.95-3.43S738.88,1803,745.09,1804.27Z" transform="translate(-682.48 -1738.02)"/><path class="96f6eb9d-1c5b-45a2-8b07-6424e16ebc34" d="M763.89,1782.59a41.7,41.7,0,0,0-1.57-21.59c-4.92-13.29-16.38-3.76-23.15-11.38,0,0-3-3.44-2.49-7.47s11.71-6.32,22.55-1.08c8.07,3.89,13.41,13.09,11.11,28.44-2.17,14.52-1.25,22.19-1.86,30.47l-1.81-.29A70.72,70.72,0,0,0,763.89,1782.59Z" transform="translate(-682.48 -1738.02)"/><path class="96f6eb9d-1c5b-45a2-8b07-6424e16ebc34" d="M736.67,1742.15c2.81,0.28,3.91,2.51,2.49,7.47s-12.45,6.52-12.71,12.44c-2.64-2.19-1.67-2.31-1.67-2.31s1.46-12.25,3.79-13.12S733.18,1741.8,736.67,1742.15Z" transform="translate(-682.48 -1738.02)"/><polygon class="f6117d09-81a1-433a-890f-4c23018dbe4c" points="63.46 88.89 63.46 164.1 67.44 163.14 67.44 89.68 70.61 68.52 67 66.24 63.46 88.89"/><path class="9e58e912-44d0-4cc4-8c11-b53dfa54d66e" d="M749.47,1804.27s2.5,4.35,2.17,6.1c2-.54,8.29-7.53,7.52-10.18-0.71-2.43-1-3.43-1-3.43S755.68,1803,749.47,1804.27Z" transform="translate(-682.48 -1738.02)"/><circle class="55891890-9aed-49f3-ac71-9c4d9fa164bc" cx="65.45" cy="89.2" r="1.02"/><circle class="55891890-9aed-49f3-ac71-9c4d9fa164bc" cx="65.45" cy="106.58" r="1.02"/><circle class="55891890-9aed-49f3-ac71-9c4d9fa164bc" cx="68.05" cy="71.66" r="1.02"/><circle class="55891890-9aed-49f3-ac71-9c4d9fa164bc" cx="65.45" cy="123.96" r="1.02"/><circle class="55891890-9aed-49f3-ac71-9c4d9fa164bc" cx="65.45" cy="141.34" r="1.02"/><circle class="55891890-9aed-49f3-ac71-9c4d9fa164bc" cx="65.45" cy="158.72" r="1.02"/><path class="96f6eb9d-1c5b-45a2-8b07-6424e16ebc34" d="M768.41,1791.9a207.38,207.38,0,0,1-.59,22.78,5.65,5.65,0,0,1-2.66,4.1l-0.28-7.22V1819a17,17,0,0,1-2.2,1.19l-0.45.19-0.38-8.48,0,8.65-0.9.31-0.09-12-0.17,12.06-0.38.11s0.42-19.5,0-21.08a3.81,3.81,0,0,1,.42-2.85Z" transform="translate(-682.48 -1738.02)"/><path class="bdd98e44-e739-44b6-9dd0-ba64adeb8599" d="M737,2031.28h-4.4c-2.64,0-6.79,3.16-6.79,5.79v0.69c0,5.3,2.16,4.79,4.79,4.79H739c2.64,0,4.79.51,4.79-4.79v-0.69C743.78,2034.44,739.62,2031.28,737,2031.28Z" transform="translate(-682.48 -1738.02)"/><rect class="3dfa40fe-6832-4fc7-9795-b641d165613a" x="42.68" y="301.53" width="19.26" height="3.97"/><path class="bdd98e44-e739-44b6-9dd0-ba64adeb8599" d="M762.38,2031.28H758c-2.64,0-6.79,3.16-6.79,5.79v0.69c0,5.3,2.16,4.79,4.79,4.79h8.4c2.64,0,4.79.51,4.79-4.79v-0.69C769.18,2034.44,765,2031.28,762.38,2031.28Z" transform="translate(-682.48 -1738.02)"/><rect class="3dfa40fe-6832-4fc7-9795-b641d165613a" x="68.08" y="301.53" width="19.26" height="3.97"/></svg>
