<svg id="9f6de04e-ca8d-4959-8916-7eaa8ce62cba" data-name="People" xmlns="http://www.w3.org/2000/svg" xmlns:xlink="http://www.w3.org/1999/xlink" viewBox="0 0 130.51 316.31"><defs><style>.e3d08a8f-ceda-4e18-b52b-867bc95ff706{fill:none;}.\32 869a3ed-22a4-4094-b1f8-ccabb5f0c57d,.\37 7e0331a-5c0e-42fa-8b69-4c77b51cc011,.df17fa15-43ce-47b7-b387-70b5590b67ce{fill:#495b66;}.df17fa15-43ce-47b7-b387-70b5590b67ce{opacity:0.2;}.\32 869a3ed-22a4-4094-b1f8-ccabb5f0c57d{opacity:0.4;}.\31 2cc6e59-c693-47f3-8898-87c33a46695c,.e6fbffc8-356a-41b0-a7f2-a4c0dc4b8cc4{fill:#6c7f8b;}.\31 2cc6e59-c693-47f3-8898-87c33a46695c{opacity:0.3;}.\37 f8418cc-bf15-46ac-a52a-f11c036d8d8b{fill:#8fa3b0;}.be39c0b3-49b9-46c1-9726-9725a3859490{fill:#dadde0;}.\38 687b679-5f69-4d3d-a869-81de55eb1340{fill:#b5c0c8;}.\39 056c843-0ca2-46e1-b4db-162e7369d8f6{fill:#364249;}.\34 584ead0-9813-42af-b643-0edbf33a4837{fill:#c7c9cc;}.c108c02e-7876-4bc2-b1e8-16049f7b03d7{clip-path:url(#172f5b23-e3eb-4617-8549-01a342a8465a);}.ddc0b90c-9d90-4aaf-ba25-3663317437ac{fill:#f0f3f5;opacity:0.5;}.f58e1c39-194a-40f2-8aac-e2ab63fa0993{fill:#cccbc9;}</style><clipPath id="172f5b23-e3eb-4617-8549-01a342a8465a" transform="translate(-682.48 -178.53)"><path class="e3d08a8f-ceda-4e18-b52b-867bc95ff706" d="M747.73,236.76h0.08c-9.86,0-18.49-12.35-18.85-23.29L728,200.55c0-10.61,6.21-19.29,16.06-19.29h7.36c9.86,0,16.06,8.68,16.06,19.29l-0.93,12.92C765.85,224.16,757.58,236.76,747.73,236.76Z"/></clipPath></defs><title>jenelle</title><ellipse class="df17fa15-43ce-47b7-b387-70b5590b67ce" cx="65.25" cy="306.9" rx="65.25" ry="9.41"/><ellipse class="2869a3ed-22a4-4094-b1f8-ccabb5f0c57d" cx="65.25" cy="305.9" rx="47.37" ry="6.83"/><path class="12cc6e59-c693-47f3-8898-87c33a46695c" d="M735.63,292.19a9.78,9.78,0,0,1-8.06-4l-0.1-1.75s2.91,4.53,8.12,4.53,8.38-4.8,8.38-4.8S741.49,292.19,735.63,292.19Z" transform="translate(-682.48 -178.53)"/><path class="7f8418cc-bf15-46ac-a52a-f11c036d8d8b" d="M726.11,281.49a9.52,9.52,0,1,0,9.52-9.52A9.52,9.52,0,0,0,726.11,281.49Z" transform="translate(-682.48 -178.53)"/><path class="7f8418cc-bf15-46ac-a52a-f11c036d8d8b" d="M726.25,279.84a45.43,45.43,0,0,0,1-9.18c2.34-6,3.53,4.59,3.53,4.59L728.1,281Z" transform="translate(-682.48 -178.53)"/><polygon class="be39c0b3-49b9-46c1-9726-9725a3859490" points="95.72 172.41 103.19 172.15 101.88 118.98 94.85 118.9 95.72 172.41"/><path class="e6fbffc8-356a-41b0-a7f2-a4c0dc4b8cc4" d="M782.09,361.74s-1.44,3.27-1.51,3.33a4.73,4.73,0,0,1-.8.1l-0.21-.62L781,360.2l0.25-4.64-0.6-2.68,0.21-1.17,1.14-1.07,1.56,2.65,0.46,3.57-0.72,2.81Z" transform="translate(-682.48 -178.53)"/><polygon class="7f8418cc-bf15-46ac-a52a-f11c036d8d8b" points="97.76 191.63 96.72 190.74 97.95 187.06 99.1 181.69 99.02 176.93 98.11 173.53 100.05 172.61 102.33 180.49 98.69 192.07 97.76 191.63"/><polygon class="8687b679-5f69-4d3d-a869-81de55eb1340" points="98.66 193.96 96.72 193.35 98.42 187.5 99.46 181.58 99.29 176.95 98.21 173.49 98.96 170.88 102.5 173.26 98.66 193.96"/><polygon class="be39c0b3-49b9-46c1-9726-9725a3859490" points="103.11 168.63 103.93 176.57 103.12 182.63 101.9 188.36 99.34 195.05 97.4 194.43 99.29 187.34 100.16 181.65 99.91 177.02 98.91 173.32 97.96 175.67 97.34 183.43 96.53 185.08 94.75 184.43 94.48 178.2 94.62 172.35 97.03 162.64 103.11 168.63"/><path class="e6fbffc8-356a-41b0-a7f2-a4c0dc4b8cc4" d="M736.89,182.65c-3.51-1.53-16.67,3.65-14,28.14,0.83,7.67,6.17,21.18,5.92,28.67s13.08,11.16,13.08,11.16l22-4.19s6.84,10.38,4.09-33S736.89,182.65,736.89,182.65Z" transform="translate(-682.48 -178.53)"/><polygon class="8687b679-5f69-4d3d-a869-81de55eb1340" points="72.36 295.63 82.67 295.75 91.31 162.43 40.22 162.43 47.66 296.42 57.81 296.42 64.41 179.66 66.85 179.66 72.36 295.63"/><polygon class="be39c0b3-49b9-46c1-9726-9725a3859490" points="35.75 172.41 28.28 172.15 29.59 118.98 36.62 118.9 35.75 172.41"/><path class="e6fbffc8-356a-41b0-a7f2-a4c0dc4b8cc4" d="M714.35,361.74s1.44,3.27,1.51,3.33a4.73,4.73,0,0,0,.8.1l0.21-.62-1.43-4.36-0.25-4.64,0.6-2.68-0.21-1.17-1.14-1.07-1.56,2.65-0.46,3.57,0.72,2.81Z" transform="translate(-682.48 -178.53)"/><polygon class="7f8418cc-bf15-46ac-a52a-f11c036d8d8b" points="33.73 191.63 34.76 190.74 33.53 187.06 32.39 181.69 32.47 176.93 33.38 173.53 31.44 172.61 29.16 180.49 32.8 192.07 33.73 191.63"/><polygon class="8687b679-5f69-4d3d-a869-81de55eb1340" points="32.83 193.96 34.77 193.35 33.07 187.5 32.03 181.58 32.2 176.95 33.28 173.49 32.53 170.88 28.99 173.26 32.83 193.96"/><polygon class="be39c0b3-49b9-46c1-9726-9725a3859490" points="28.38 168.63 27.55 176.57 28.37 182.63 29.59 188.36 32.15 195.05 34.09 194.43 32.2 187.34 31.32 181.65 31.58 177.02 32.58 173.32 33.53 175.67 34.15 183.43 34.96 185.08 36.74 184.43 37.01 178.2 36.86 172.35 34.45 162.64 28.38 168.63"/><path class="9056c843-0ca2-46e1-b4db-162e7369d8f6" d="M736.56,237.26c5.4-1.77,16.49-1.73,21.82,0l-1.05,4.59-19.94-.35Z" transform="translate(-682.48 -178.53)"/><path class="7f8418cc-bf15-46ac-a52a-f11c036d8d8b" d="M779.6,258.49c-1.2-9.06-2-15-11.23-16.23l-19.86-3-0.36,0-0.36,0-19.86,3c-9.24,1.21-11,7.17-12.23,16.23,0.08-.8-4.59,33.12-4.77,42-0.11,5.09-.28,43.63-0.28,43.63l7.88-.17,1.93-43.47,4.75-35c-1.48,12.8,1.44,28.2.14,41-1.33,13.19-3.58,24.56-3.58,35h52.8c0-10.12-2.92-23.24-3.75-35-0.87-12.18,1.12-22.88.31-41l4.44,35L777.77,344l7.88,0.17s-0.75-38.89-.78-43.63C784.83,291.69,779.6,258.49,779.6,258.49Z" transform="translate(-682.48 -178.53)"/><path class="be39c0b3-49b9-46c1-9726-9725a3859490" d="M757.33,240.7l-0.44-8.86c-3,2.37-15.75,2.5-18.84,0l-0.43,8.86s1,3.44,7.69,4.08l2.19,14.64,2.19-14.65C756.37,244.12,757.33,240.7,757.33,240.7Z" transform="translate(-682.48 -178.53)"/><path class="8687b679-5f69-4d3d-a869-81de55eb1340" d="M737.88,235.28s4.17,4.85,9.56,4.85,9.63-4.66,9.63-4.66L757,232.13l-19-.36Z" transform="translate(-682.48 -178.53)"/><rect class="4584ead0-9813-42af-b643-0edbf33a4837" x="725.36" y="202.55" width="4.12" height="11.86" rx="2.06" ry="2.06" transform="translate(-697.45 -116.54) rotate(-4.83)"/><path class="be39c0b3-49b9-46c1-9726-9725a3859490" d="M747.68,236.76h0.08c-9.86,0-18.49-12.35-18.85-23.29L728,200.55c0-10.61,6.21-19.29,16.06-19.29h7.36c9.86,0,16.06,8.68,16.06,19.29l-0.93,12.92C765.81,224.16,757.54,236.76,747.68,236.76Z" transform="translate(-682.48 -178.53)"/><g class="c108c02e-7876-4bc2-b1e8-16049f7b03d7"><polygon class="ddc0b90c-9d90-4aaf-ba25-3663317437ac" points="85.03 66.14 65.06 66.64 65.06 2.13 85.03 1.64 85.03 66.14"/></g><rect class="7f8418cc-bf15-46ac-a52a-f11c036d8d8b" x="27.62" y="162.64" width="9" height="4.54"/><rect class="7f8418cc-bf15-46ac-a52a-f11c036d8d8b" x="94.68" y="162.64" width="9" height="4.54"/><path class="77e0331a-5c0e-42fa-8b69-4c77b51cc011" d="M745.3,244.78s-2.5,4.35-2.17,6.1c-2-.54-8.25-7.52-7.52-10.18l0.95-3.43S739.1,243.51,745.3,244.78Z" transform="translate(-682.48 -178.53)"/><path class="e6fbffc8-356a-41b0-a7f2-a4c0dc4b8cc4" d="M764.1,223.09a41.7,41.7,0,0,0-1.57-21.59c-4.92-13.29-16.38-3.76-23.15-11.38,0,0-3-3.44-2.49-7.47s11.71-6.32,22.55-1.08c8.07,3.89,13.41,13.09,11.11,28.44-2.17,14.52-1.25,22.19-1.86,30.47l-1.81-.29A70.72,70.72,0,0,0,764.1,223.09Z" transform="translate(-682.48 -178.53)"/><path class="e6fbffc8-356a-41b0-a7f2-a4c0dc4b8cc4" d="M736.89,182.65c2.81,0.28,3.91,2.51,2.49,7.47s-12.45,6.52-12.71,12.44c-2.64-2.19-1.67-2.31-1.67-2.31s1.46-12.25,3.79-13.12S733.4,182.31,736.89,182.65Z" transform="translate(-682.48 -178.53)"/><polygon class="e6fbffc8-356a-41b0-a7f2-a4c0dc4b8cc4" points="63.68 88.89 63.68 164.1 67.65 163.14 67.65 89.68 70.82 68.52 67.21 66.24 63.68 88.89"/><path class="77e0331a-5c0e-42fa-8b69-4c77b51cc011" d="M749.69,244.77s2.5,4.35,2.17,6.1c2-.54,8.29-7.53,7.52-10.18-0.71-2.43-1-3.43-1-3.43S755.89,243.51,749.69,244.77Z" transform="translate(-682.48 -178.53)"/><path class="e6fbffc8-356a-41b0-a7f2-a4c0dc4b8cc4" d="M768.62,232.41a207.38,207.38,0,0,1-.59,22.78,5.65,5.65,0,0,1-2.66,4.1l-0.28-7.22v7.43a17,17,0,0,1-2.2,1.19l-0.45.19-0.38-8.48,0,8.65-0.9.31-0.09-12-0.17,12.06-0.38.11s0.42-19.5,0-21.08a3.81,3.81,0,0,1,.42-2.85Z" transform="translate(-682.48 -178.53)"/><path class="77e0331a-5c0e-42fa-8b69-4c77b51cc011" d="M737.2,471.79h-4.4c-2.64,0-6.79,3.16-6.79,5.79v0.69c0,5.3,2.16,4.79,4.79,4.79h8.4c2.64,0,4.79.51,4.79-4.79v-0.69C744,474.95,739.84,471.79,737.2,471.79Z" transform="translate(-682.48 -178.53)"/><rect class="f58e1c39-194a-40f2-8aac-e2ab63fa0993" x="42.9" y="301.53" width="19.26" height="3.97"/><path class="77e0331a-5c0e-42fa-8b69-4c77b51cc011" d="M762.6,471.79h-4.4c-2.64,0-6.79,3.16-6.79,5.79v0.69c0,5.3,2.16,4.79,4.79,4.79h8.4c2.64,0,4.79.51,4.79-4.79v-0.69C769.39,474.95,765.23,471.79,762.6,471.79Z" transform="translate(-682.48 -178.53)"/><rect class="f58e1c39-194a-40f2-8aac-e2ab63fa0993" x="68.29" y="301.53" width="19.26" height="3.97"/><path class="12cc6e59-c693-47f3-8898-87c33a46695c" d="M762.85,292.19a9.85,9.85,0,0,0,8.08-4.05L771,286.4s-2.91,4.53-8.12,4.53-8.38-4.8-8.38-4.8S757,292.19,762.85,292.19Z" transform="translate(-682.48 -178.53)"/><path class="7f8418cc-bf15-46ac-a52a-f11c036d8d8b" d="M772.37,281.49a9.52,9.52,0,1,1-9.52-9.52A9.52,9.52,0,0,1,772.37,281.49Z" transform="translate(-682.48 -178.53)"/><path class="7f8418cc-bf15-46ac-a52a-f11c036d8d8b" d="M772.23,279.84a45.43,45.43,0,0,1-1-9.18c-2.34-6-3.53,4.59-3.53,4.59l2.66,5.75Z" transform="translate(-682.48 -178.53)"/><path class="12cc6e59-c693-47f3-8898-87c33a46695c" d="M733.37,292.19a9.78,9.78,0,0,1-8.06-4l-0.1-1.75s2.91,4.53,8.12,4.53,8.38-4.8,8.38-4.8S739.23,292.19,733.37,292.19Z" transform="translate(-682.48 -178.53)"/><path class="7f8418cc-bf15-46ac-a52a-f11c036d8d8b" d="M723.85,281.49a9.52,9.52,0,1,0,9.52-9.52A9.52,9.52,0,0,0,723.85,281.49Z" transform="translate(-682.48 -178.53)"/><path class="7f8418cc-bf15-46ac-a52a-f11c036d8d8b" d="M724,279.84a45.43,45.43,0,0,0,1-9.18c2.34-6,3.53,4.59,3.53,4.59L725.84,281Z" transform="translate(-682.48 -178.53)"/></svg>
