<svg id="2a74338e-0b0b-4d93-b3a3-bb105f88b892" data-name="People" xmlns="http://www.w3.org/2000/svg" xmlns:xlink="http://www.w3.org/1999/xlink" viewBox="0 0 130.51 325.76"><defs><style>.\31 5cd112f-79c6-4b13-915e-be77091ce7eb{fill:none;}.\38 7865487-3e18-4b89-87d8-7524a9a2affa,.abe0912d-6c2c-4593-ab1f-1413cb19c81e,.d05748c8-3661-4b15-a0b7-7a1b888ad877{fill:#046466;}.abe0912d-6c2c-4593-ab1f-1413cb19c81e{opacity:0.2;}.d05748c8-3661-4b15-a0b7-7a1b888ad877{opacity:0.4;}.ff512aca-535d-4f7d-a027-4d56fc7dfdcf{fill:#e2c8ad;}.\35 83c221c-d299-4ee9-9231-4318938d3724{fill:#c9b29d;}.\37 c4b027d-ded6-4299-851c-85871a5bd9be{clip-path:url(#3a51cb1d-c5ea-43a6-85b3-a755fbacf464);}.\39 21045a9-fd07-4d46-a88c-28300de3f1ad{fill:#07a8ab;}.cc71653f-0305-4f8f-beaa-eab532748aaf{clip-path:url(#a4260df9-8b93-4541-aa16-a5da9f9a294b);}.\37 376b426-8e09-433e-862c-dfa97e21a065{fill:#877b6b;}.\30 446c98d-d692-45d9-8996-67a62ba33a2c{fill:#9c8d7b;}.\33 b308291-7a56-4785-a988-933541b472fb{fill:#baa792;}.c0806bf9-9379-4eda-b345-e382b786cf6b{fill:#2a2c44;}.c15931dc-00b0-487d-9d95-2bbe35ce718c{fill:#d3baa3;}.\31 080e3e1-3954-4184-ab26-833ad17568ba{clip-path:url(#51fdffb2-172d-4e39-836e-e014b97635a4);}.f74bf508-7dfb-4574-9a87-998aca61f400{fill:#ead8c7;}.a34f887a-ba06-4144-a573-aa5dcd58f687{fill:#cccbc9;}.\31 a4f6b2f-aedc-4de4-8ad2-c7e80b62699f{fill:#23263a;}.\31 70091e1-59ee-4ec8-89ad-87def23b1444{fill:#231f20;}.\30 2b36d6d-e343-4cff-b9db-1cb2be373043{fill:#057b7d;}.fbe0c7f9-a5b7-43d0-909f-ca9ac1404061{fill:#fff;}.\32 9327583-e65b-4768-ace9-245639c8c979{fill:#069194;}.dba22c5b-2daf-428c-8e0c-c91dd93e81bf{fill:#005254;}</style><clipPath id="3a51cb1d-c5ea-43a6-85b3-a755fbacf464" transform="translate(-201.54 -1727.44)"><polygon class="15cd112f-79c6-4b13-915e-be77091ce7eb" points="255.44 2032.31 243.97 2032.31 242.58 2005.81 256.83 2005.81 255.44 2032.31"/></clipPath><clipPath id="a4260df9-8b93-4541-aa16-a5da9f9a294b" transform="translate(-201.54 -1727.44)"><polygon class="15cd112f-79c6-4b13-915e-be77091ce7eb" points="291.27 2032.31 279.8 2032.31 278.41 2005.81 292.66 2005.81 291.27 2032.31"/></clipPath><clipPath id="51fdffb2-172d-4e39-836e-e014b97635a4" transform="translate(-201.54 -1727.44)"><path class="15cd112f-79c6-4b13-915e-be77091ce7eb" d="M266.78,1786.65h-0.07c-8.92,0-16.49-12.52-16.81-23.34l-1.17-12.77c0-10.49,5.61-19.07,14.53-19.07h6.65c8.92,0,14.53,8.58,14.53,19.07l-0.84,12.77C282.95,1773.88,275.7,1786.65,266.78,1786.65Z"/></clipPath></defs><title>male</title><ellipse class="abe0912d-6c2c-4593-ab1f-1413cb19c81e" cx="65.25" cy="316.35" rx="65.25" ry="9.41"/><ellipse class="d05748c8-3661-4b15-a0b7-7a1b888ad877" cx="65.25" cy="315.35" rx="47.37" ry="6.83"/><path d="M255.52,1785.94c5.65-1.86,17.26-1.81,22.85,0l-1.1,4.8-20.87-.37Z" transform="translate(-201.54 -1727.44)"/><path class="ff512aca-535d-4f7d-a027-4d56fc7dfdcf" d="M267.25,1786.65h0c-3.76,0-5.9-1.59-9-4.09l-1.12,6s1.46,22.85,9.73,22.85,10-22.85,10-22.85l-1-5.79C272.92,1785.16,270.87,1786.64,267.25,1786.65Z" transform="translate(-201.54 -1727.44)"/><path class="583c221c-d299-4ee9-9231-4318938d3724" d="M267.25,1786.65h0c-3.77,0-5.81-2-8.91-4.49l-0.31,1.63s3.57,5.45,9,5.45,9-5.42,9-5.42l-0.2-1C272.88,1785.15,270.87,1786.64,267.25,1786.65Z" transform="translate(-201.54 -1727.44)"/><polygon class="87865487-3e18-4b89-87d8-7524a9a2affa" points="53.9 304.87 42.43 304.87 41.04 278.37 55.29 278.37 53.9 304.87"/><g class="7c4b027d-ded6-4299-851c-85871a5bd9be"><polygon class="921045a9-fd07-4d46-a88c-28300de3f1ad" points="69.01 293.31 69.47 293.04 69.01 292.25 69.01 281.45 59.62 281.45 59.62 283.4 31.19 299.82 32.15 301.46 59.62 285.6 59.62 287.84 31.86 303.86 32.82 305.51 59.62 290.04 59.62 292.23 34.65 306.65 35.6 308.3 59.62 294.43 59.62 296.53 37.37 309.37 38.33 311.02 62.41 297.12 69.01 297.12 69.01 293.31"/></g><polygon class="87865487-3e18-4b89-87d8-7524a9a2affa" points="89.72 304.87 78.25 304.87 76.86 278.37 91.11 278.37 89.72 304.87"/><g class="cc71653f-0305-4f8f-beaa-eab532748aaf"><polygon class="921045a9-fd07-4d46-a88c-28300de3f1ad" points="104.84 293.31 105.3 293.04 104.84 292.25 104.84 281.45 95.45 281.45 95.45 283.4 67.02 299.82 67.97 301.46 95.45 285.6 95.45 287.84 67.69 303.86 68.65 305.51 95.45 290.04 95.45 292.23 70.48 306.65 71.43 308.3 95.45 294.43 95.45 296.53 73.2 309.37 74.16 311.02 98.24 297.12 104.84 297.12 104.84 293.31"/></g><path class="7376b426-8e09-433e-862c-dfa97e21a065" d="M306,1919.66s-1.7,3.32-1.8,3.38a8.83,8.83,0,0,1-1.1.13l-0.35-.61,1.58-4.41-0.08-4.65-1.08-2.66,0.19-1.17,1.48-1.11,2.42,2.6,1,3.56-0.75,2.84Z" transform="translate(-201.54 -1727.44)"/><polygon class="0446c98d-d692-45d9-8996-67a62ba33a2c" points="102.64 200.7 101.12 199.84 102.49 196.13 103.58 190.71 103.03 185.95 101.45 182.58 104.07 181.59 107.97 189.41 103.97 201.12 102.64 200.7"/><polygon class="3b308291-7a56-4785-a988-933541b472fb" points="104.12 203 101.36 202.46 103.18 196.55 104.08 190.59 103.41 185.96 101.59 182.53 102.39 179.9 107.53 182.18 104.12 203"/><polygon class="ff512aca-535d-4f7d-a027-4d56fc7dfdcf" points="107.12 175.44 109.83 185.44 109.26 191.53 108.1 197.31 105.16 204.08 102.4 203.51 104.37 196.36 105.06 190.64 104.27 186.01 102.55 182.34 101.44 184.72 101.31 192.5 100.33 194.18 97.79 193.59 96.84 187.36 96.5 181.5 100.03 170.8 107.12 175.44"/><path class="7376b426-8e09-433e-862c-dfa97e21a065" d="M228,1919.66s1.7,3.32,1.8,3.38a8.83,8.83,0,0,0,1.1.13l0.35-.61-1.58-4.41,0.08-4.65,1.08-2.66-0.19-1.17-1.48-1.11-2.42,2.6-1,3.56,0.75,2.84Z" transform="translate(-201.54 -1727.44)"/><polygon class="0446c98d-d692-45d9-8996-67a62ba33a2c" points="28.3 200.7 29.82 199.84 28.45 196.13 27.36 190.71 27.91 185.95 29.49 182.58 26.88 181.59 22.97 189.41 26.97 201.12 28.3 200.7"/><polygon class="3b308291-7a56-4785-a988-933541b472fb" points="26.83 203 29.58 202.46 27.77 196.55 26.86 190.59 27.54 185.96 29.36 182.53 28.55 179.9 23.41 182.18 26.83 203"/><polygon class="ff512aca-535d-4f7d-a027-4d56fc7dfdcf" points="23.82 175.44 21.11 185.44 21.68 191.53 22.84 197.31 25.78 204.08 28.54 203.51 26.57 196.36 25.88 190.64 26.67 186.01 28.39 182.34 29.5 184.72 29.64 192.5 30.61 194.18 33.15 193.59 34.1 187.36 34.44 181.5 30.91 170.8 23.82 175.44"/><polygon class="c0806bf9-9379-4eda-b345-e382b786cf6b" points="74.82 289.61 92.04 289.74 95.47 170.36 35.81 170.38 40.12 291.4 57.27 291.4 64.88 190.64 67.31 190.64 74.82 289.61"/><path class="87865487-3e18-4b89-87d8-7524a9a2affa" d="M306.66,1810.39c-2.66-10-2.09-12.77-11.23-15.23l-16.72-5-0.11.06-0.14,0v0h0l-0.69-.18-1.73,1.38-2.33,1.15-6.4,17.83-6.4-17.83-0.1.46-0.17-.46-1.63-.8-2.16-1.72-0.86.23-0.11-.06-16.72,5c-9.14,2.46-8.57,5.23-11.23,15.23-6.36,34.6-5.36,44.92-5.36,44.92v30.85L224,1893h10.63l0.43-3,1-34.95,3.15-25.89-1.85,70.25H297.2l-2.08-70.25,3.11,25.89,1,34.95,0.43,3h10.63l1.71-6.8V1855.3S313,1845,306.66,1810.39Z" transform="translate(-201.54 -1727.44)"/><rect class="c15931dc-00b0-487d-9d95-2bbe35ce718c" x="246.89" y="1755.44" width="4.12" height="11.86" rx="2.06" ry="2.06" transform="translate(-348.98 -1700.22) rotate(-4.83)"/><rect class="c15931dc-00b0-487d-9d95-2bbe35ce718c" x="278.51" y="1759.32" width="11.86" height="4.12" rx="2.06" ry="2.06" transform="translate(-1694.77 186.34) rotate(-85.73)"/><path class="ff512aca-535d-4f7d-a027-4d56fc7dfdcf" d="M266.71,1786.65h0.07c-8.84,0-16.58-12.35-16.9-23.29L249,1750.44c0-10.61,5.56-19.29,14.4-19.29H270c8.84,0,14.4,8.68,14.4,19.29l-0.83,12.92C283,1774.06,275.55,1786.65,266.71,1786.65Z" transform="translate(-201.54 -1727.44)"/><g class="1080e3e1-3954-4184-ab26-833ad17568ba"><polygon class="f74bf508-7dfb-4574-9a87-998aca61f400" points="83.27 66.71 65.2 67.21 65.2 3.44 83.27 2.94 83.27 66.71"/></g><rect x="73.45" y="302.41" width="21.08" height="13.67" rx="6.39" ry="6.39"/><rect class="a34f887a-ba06-4144-a573-aa5dcd58f687" x="72.49" y="310.68" width="23" height="6"/><rect x="37.62" y="302.41" width="21.08" height="13.67" rx="6.39" ry="6.39"/><rect class="a34f887a-ba06-4144-a573-aa5dcd58f687" x="36.66" y="310.68" width="23" height="6"/><rect class="1a4f6b2f-aedc-4de4-8ad2-c7e80b62699f" x="73.77" y="288.68" width="19.88" height="5.44" rx="1.39" ry="1.39"/><rect class="1a4f6b2f-aedc-4de4-8ad2-c7e80b62699f" x="38.82" y="288.68" width="19.88" height="5.44" rx="1.39" ry="1.39"/><path class="170091e1-59ee-4ec8-89ad-87def23b1444" d="M284.4,1741.6l-0.54-1.86,0.15-1.36-1.29-.52-0.55-1.88-0.85-.48-5.78-6.44,0.29,1.44-3.89-2,0.44,1.72-3.56-2.81,1.15,2.69-5.06-2.43,0.93,1.51-3.73-.42,2,1.28-2,.08-3.88-1.8,1,1.81-3-.62,1.56,1.94-3.65.5,2.24,0.25-5,1.25s-0.42,1,1.67,1.25c-0.73-.23-5.12,2.44-5.12,2.44l2.7-.09-4.83,4.24,2.33-.75-1.13,4.81,1.66-1.32-0.85,3.28,0,3.78,1,7.63c1.57,15.8,6.17,27.89,17.83,27.89L282,1769.82l-6,3.59s0-5.24-9.17-5.24c-9.73,0-9.38,5.32-9.38,5.32l-5.18-3.64s-2.08-9.91-2.2-11.45c-1.42-18.19,9.45-21.58,16.57-17.9,8.16-3.85,20.41-.33,18,17.83l0.8-8.68-0.52-3.75Z" transform="translate(-201.54 -1727.44)"/><path class="170091e1-59ee-4ec8-89ad-87def23b1444" d="M274.37,1736.65l-7.69-3.72v7.57c7.12-3.68,18-.28,16.57,17.9-0.12,1.54-2.2,11.45-2.2,11.45l-5.18,3.64s0.35-5.32-9.38-5.32l0.13,18.47c11.66,0,16.26-12.09,17.83-27.89l1-7.63,0-3.78-0.85-3.28-3.44-3.58Z" transform="translate(-201.54 -1727.44)"/><path class="ff512aca-535d-4f7d-a027-4d56fc7dfdcf" d="M271.57,1772.54c0,1,0,4.78-4.8,4.78s-4.8-3.79-4.8-4.78,2.15-1.26,4.8-1.26S271.57,1771.55,271.57,1772.54Z" transform="translate(-201.54 -1727.44)"/><polygon class="02b36d6d-e343-4cff-b9db-1cb2be373043" points="63.13 66.36 65.33 81.08 64.01 92.5 60.26 70.65 60.26 67.67 63.13 66.36"/><circle class="fbe0c7f9-a5b7-43d0-909f-ca9ac1404061" cx="263.58" cy="1796.08" r="0.75" transform="translate(-863.32 -1493.12) rotate(-22.3)"/><polygon class="29327583-e65b-4768-ace9-245639c8c979" points="98.14 176.14 108.24 176.14 108.77 165.51 98.14 165.51 98.14 176.14"/><path class="dba22c5b-2daf-428c-8e0c-c91dd93e81bf" d="M264.67,1793.8s-3.72,5.1-3.37,6.93c-2.14-.57-7.54-8.42-6.78-11.2l1-3.59S258.17,1792.48,264.67,1793.8Z" transform="translate(-201.54 -1727.44)"/><polygon class="29327583-e65b-4768-ace9-245639c8c979" points="64.01 90.06 64.01 172.95 68.18 171.95 68.18 90.89 71.5 68.74 67.71 66.36 64.01 90.06"/><path class="dba22c5b-2daf-428c-8e0c-c91dd93e81bf" d="M269.26,1793.79s4.13,5.11,3.78,6.94c2.14-.57,7.17-8.44,6.36-11.21-0.75-2.55-1-3.59-1-3.59S275.75,1792.47,269.26,1793.79Z" transform="translate(-201.54 -1727.44)"/><circle class="fbe0c7f9-a5b7-43d0-909f-ca9ac1404061" cx="67.1" cy="85.33" r="1.06"/><circle class="fbe0c7f9-a5b7-43d0-909f-ca9ac1404061" cx="66.1" cy="116.3" r="1.06"/><circle class="fbe0c7f9-a5b7-43d0-909f-ca9ac1404061" cx="270.36" cy="1799.47" r="1.06" transform="translate(-1695.58 -373.03) rotate(-67.3)"/><circle class="fbe0c7f9-a5b7-43d0-909f-ca9ac1404061" cx="66.1" cy="131.93" r="1.06"/><circle class="fbe0c7f9-a5b7-43d0-909f-ca9ac1404061" cx="66.1" cy="147.55" r="1.06"/><circle class="fbe0c7f9-a5b7-43d0-909f-ca9ac1404061" cx="66.1" cy="163.17" r="1.06"/><circle class="fbe0c7f9-a5b7-43d0-909f-ca9ac1404061" cx="66.1" cy="100.68" r="1.06"/><circle class="fbe0c7f9-a5b7-43d0-909f-ca9ac1404061" cx="259.95" cy="1797.26" r="0.75" transform="translate(-864.04 -1494.41) rotate(-22.3)"/><circle class="fbe0c7f9-a5b7-43d0-909f-ca9ac1404061" cx="274.13" cy="1797.26" r="0.75" transform="translate(-1691.23 -370.9) rotate(-67.3)"/><polygon class="29327583-e65b-4768-ace9-245639c8c979" points="33.09 176.14 23 176.14 22.46 165.51 33.09 165.51 33.09 176.14"/></svg>
