<svg data-name="Layer 1" xmlns="http://www.w3.org/2000/svg" viewBox="0 0 39.75 121.09"><defs><style>.cls-1{fill:#8fa3b0;}.cls-2{fill:#6c7f8b;}</style></defs><title>silhouette</title><path class="cls-1" d="M8324.78,509c0,5.64-3.79,12.06-8.47,12.06s-8.47-6.42-8.47-12.06,3.79-8.36,8.47-8.36S8324.78,503.36,8324.78,509Z" transform="translate(-8296.35 -500.64)"/><polygon class="cls-1" points="32.84 70.48 6.91 70.48 6.91 70.28 9.91 116.79 16.58 116.79 19.14 74.19 21.14 74.19 23.7 116.79 30.37 116.79 32.84 70.28 32.84 70.48"/><path class="cls-2" d="M8335.25,539.58l-1.14-8.36a7.59,7.59,0,0,0-6.84-6.84h-21.81a7.48,7.48,0,0,0-6.84,6.84l-1.24,8.36-1,28.68,4.91,0,2.86-28.64v29.69h24.74V539.58l2.52,28.75,4.73,0Z" transform="translate(-8296.35 -500.64)"/><path class="cls-2" d="M24,115.78h5.89A2.21,2.21,0,0,1,32.12,118v3.11a0,0,0,0,1,0,0H21.82a0,0,0,0,1,0,0V118A2.21,2.21,0,0,1,24,115.78Z"/><path class="cls-2" d="M10,115.78h5.89A2.21,2.21,0,0,1,18.08,118v3.11a0,0,0,0,1,0,0H7.77a0,0,0,0,1,0,0V118A2.21,2.21,0,0,1,10,115.78Z"/></svg>
