<svg id="240db7f0-09b4-4365-bece-27d1707e440d" data-name="People" xmlns="http://www.w3.org/2000/svg" xmlns:xlink="http://www.w3.org/1999/xlink" viewBox="0 0 130.51 306.79"><defs><style>.\38 f6d8e96-034c-45a6-8e5f-04e60cc9ff81{fill:none;}.\33 ecec14e-99ff-4d75-9898-e330ceeb4107{fill:#0c436d;}.d7a7ee8b-2f71-452f-ba85-281d5216c476{fill:#dadde0;}.d6b37b51-3ebb-4de4-b884-e417b9a4fc6e{fill:#808385;}.d341c783-58d0-4312-8f1f-de022fd1ea7b{fill:#989b9e;}.\37 2ea3098-2b86-4704-8572-2a8cf95382d8{fill:#b5b8bb;}.\37 572f87b-14d9-4305-87c1-69108c0137d3{fill:#231f20;}.\35 a498eae-98f4-4ab2-afb2-29662c0df8ad,.daa74427-d393-48fe-bc3b-c8e5409aa210,.fda1e126-cce1-4c88-824f-f0c12ccad242{fill:#495b66;}.f62a1325-3d59-48d5-9d53-4d20b2a04e13{fill:#c7c9cc;}.c2d015cd-72b1-4212-8e67-1bef625e92b8{fill:#f0f3f5;}.cdaaebd9-1e79-44c7-aca0-18db040f161d{fill:#bec1c4;}.\39 bb6fb45-7161-4a35-98d6-17eb5fb49545{clip-path:url(#32fce37a-7da2-4612-bf8d-7696b65d884f);}.f61e036a-42a4-42cb-af1b-b22cf29b7b4c{fill:#fff;}.f61e036a-42a4-42cb-af1b-b22cf29b7b4c,.fda1e126-cce1-4c88-824f-f0c12ccad242{opacity:0.4;}.\32 f9b7133-d3fa-4303-8ab0-0f40dd3945fb{fill:#39464e;}.\32 b3a81bf-027d-472c-9c09-2e1e2976a3db{fill:#303c43;}.\35 a498eae-98f4-4ab2-afb2-29662c0df8ad{opacity:0.2;}</style><clipPath id="32fce37a-7da2-4612-bf8d-7696b65d884f" transform="translate(-41.23 -976.19)"><path class="8f6d8e96-034c-45a6-8e5f-04e60cc9ff81" d="M107,1032.59H107c-9.11,0-17.1-12-17.43-22.67l-0.86-12.57c0-10.33,5.74-18.78,14.85-18.78h6.8c9.11,0,14.85,8.45,14.85,18.78l-0.86,12.57C123.72,1020.33,116.08,1032.59,107,1032.59Z"/></clipPath></defs><title>veronica</title><path class="3ecec14e-99ff-4d75-9898-e330ceeb4107" d="M144.16,1137.87c-0.55.17-7.26,0.27-9.09-.43,0.1-1.13.26-1.16,0.26-1.16l6.21-.32,2.09,1.24Z" transform="translate(-41.23 -976.19)"/><polygon class="d7a7ee8b-2f71-452f-ba85-281d5216c476" points="95.43 167.53 102.69 167.28 101.42 115.53 94.58 115.45 95.43 167.53"/><path class="d6b37b51-3ebb-4de4-b884-e417b9a4fc6e" d="M140.45,1154.24s-1.4,3.19-1.47,3.24a4.6,4.6,0,0,1-.78.1l-0.2-.6,1.39-4.24,0.25-4.52-0.58-2.61,0.21-1.13,1.11-1,1.52,2.58,0.45,3.47-0.7,2.74Z" transform="translate(-41.23 -976.19)"/><polygon class="d341c783-58d0-4312-8f1f-de022fd1ea7b" points="97.41 186.24 96.41 185.37 97.6 181.79 98.72 176.56 98.64 171.93 97.75 168.62 99.64 167.73 101.87 175.39 98.31 186.67 97.41 186.24"/><polygon class="72ea3098-2b86-4704-8572-2a8cf95382d8" points="98.29 188.5 96.4 187.92 98.06 182.22 99.07 176.45 98.9 171.95 97.85 168.58 98.58 166.04 102.03 168.36 98.29 188.5"/><polygon class="d7a7ee8b-2f71-452f-ba85-281d5216c476" points="102.62 163.85 103.42 171.58 102.63 177.48 101.45 183.06 98.95 189.57 97.06 188.96 98.9 182.06 99.75 176.53 99.5 172.02 98.53 168.42 97.61 170.7 97.01 178.26 96.22 179.87 94.48 179.23 94.22 173.17 94.36 167.47 96.71 158.02 102.62 163.85"/><path class="7572f87b-14d9-4305-87c1-69108c0137d3" d="M105.78,977.89c-4.83-3.62-23.66-2.07-21.79,29.42,0.45,7.49,2.61,16.34,2.37,23.63s36,0,38.15,5.44c0.93,2.3,2.6-2.74,1.17-26.47C123.14,967.73,105.78,977.89,105.78,977.89Z" transform="translate(-41.23 -976.19)"/><polygon class="daa74427-d393-48fe-bc3b-c8e5409aa210" points="72.69 287.46 82.73 287.58 90.1 151.62 42.45 151.62 48.65 288.23 58.53 288.23 66.1 174.59 72.69 287.46"/><polygon class="d7a7ee8b-2f71-452f-ba85-281d5216c476" points="37.06 167.01 29.79 166.75 31.06 115.01 37.9 114.93 37.06 167.01"/><path class="d6b37b51-3ebb-4de4-b884-e417b9a4fc6e" d="M74.52,1153.72s1.4,3.19,1.47,3.24a4.6,4.6,0,0,0,.78.1l0.2-.6-1.39-4.24-0.25-4.52,0.58-2.61L75.71,1144l-1.11-1-1.52,2.58L72.64,1149l0.7,2.74Z" transform="translate(-41.23 -976.19)"/><polygon class="d341c783-58d0-4312-8f1f-de022fd1ea7b" points="35.09 185.72 36.1 184.85 34.9 181.27 33.79 176.04 33.87 171.41 34.75 168.1 32.86 167.21 30.64 174.87 34.19 186.15 35.09 185.72"/><polygon class="72ea3098-2b86-4704-8572-2a8cf95382d8" points="34.21 187.98 36.1 187.4 34.45 181.7 33.44 175.93 33.6 171.43 34.66 168.06 33.92 165.52 30.48 167.84 34.21 187.98"/><polygon class="d7a7ee8b-2f71-452f-ba85-281d5216c476" points="29.89 163.33 29.08 171.06 29.87 176.96 31.06 182.54 33.55 189.05 35.44 188.44 33.6 181.54 32.75 176.01 33 171.5 33.97 167.89 34.9 170.18 35.5 177.73 36.29 179.34 38.02 178.71 38.29 172.65 38.14 166.95 35.8 157.5 29.89 163.33"/><path class="f62a1325-3d59-48d5-9d53-4d20b2a04e13" d="M71.15,1137.88s6.45-1.71,7.23-.32c0-1.15,0-1.54,0-1.54l-6.67-.85-0.56,1.59v1.12Z" transform="translate(-41.23 -976.19)"/><path class="f62a1325-3d59-48d5-9d53-4d20b2a04e13" d="M143.81,1138.42s-6.48-1.73-7.26-.34c0-1.15,0-2.4,0-2.4h6.67l0.56-.24Z" transform="translate(-41.23 -976.19)"/><path class="c2d015cd-72b1-4212-8e67-1bef625e92b8" d="M138,1053.74c-1.17-8.82-1.94-14.62-10.93-15.8L107.76,1035l-0.36,0-0.36,0-19.33,2.92c-9,1.18-10.74,7-11.9,15.8,0.07-.78-4.47,32.24-4.65,40.88-0.1,5-.27,42.47-0.27,42.47a10.76,10.76,0,0,1,3.9-.85,9.3,9.3,0,0,1,3.76.68l1.88-42.31,4.62-34.08c-1.44,12.46,1.4,27.45.14,39.94-1.3,12.84-2.45,17.7-2.45,27.85H131c0-9.85-.77-16.41-1.59-27.85-0.85-11.86,1.09-22.27.3-39.94l4.32,34.1,2.17,42.12a16.83,16.83,0,0,1,4.1-.39,11.2,11.2,0,0,1,3.57.73s-0.73-37.86-.76-42.47C143.11,1086.05,138,1053.74,138,1053.74Z" transform="translate(-41.23 -976.19)"/><path class="d7a7ee8b-2f71-452f-ba85-281d5216c476" d="M118.72,1036.68l-2.41-.82-0.4-8.06c-2.89,2.3-15.33,2.43-18.34,0l-0.36,8.06-2.11,1s1,8.21,11.16,8.21C116.91,1045,118.72,1036.68,118.72,1036.68Z" transform="translate(-41.23 -976.19)"/><path class="f62a1325-3d59-48d5-9d53-4d20b2a04e13" d="M97.42,1031.14s4.06,4.72,9.31,4.72,9.37-4.54,9.37-4.54l-0.11-3.24-18.47-.35Z" transform="translate(-41.23 -976.19)"/><path class="cdaaebd9-1e79-44c7-aca0-18db040f161d" d="M89.57,1010.82h0a2,2,0,0,0,1.74-2.17l-0.6-7.51a1.94,1.94,0,0,0-2.06-1.83h0a2,2,0,0,0-1.74,2.17l0.6,7.51A1.94,1.94,0,0,0,89.57,1010.82Z" transform="translate(-41.23 -976.19)"/><path class="d7a7ee8b-2f71-452f-ba85-281d5216c476" d="M106.92,1032.59H107c-9.11,0-17.1-12-17.43-22.67l-0.86-12.57c0-10.33,5.74-18.78,14.85-18.78h6.8c9.11,0,14.85,8.45,14.85,18.78l-0.86,12.57C123.68,1020.33,116,1032.59,106.92,1032.59Z" transform="translate(-41.23 -976.19)"/><g class="9bb6fb45-7161-4a35-98d6-17eb5fb49545"><polygon class="f61e036a-42a4-42cb-af1b-b22cf29b7b4c" points="84.02 64.09 65.56 64.58 65.56 1.8 84.02 1.31 84.02 64.09"/></g><path class="7572f87b-14d9-4305-87c1-69108c0137d3" d="M103.33,977.46c2.59,0.27,3.93,2.85,2.62,7.67s-17.2,4.22-18.45,14.17c-2.45-2.13-1.54-2.25-1.54-2.25s1.35-11.92,3.51-12.77S100.1,977.12,103.33,977.46Z" transform="translate(-41.23 -976.19)"/><path d="M96.76,1261.35H92.48c-2.57,0-6.61,3.07-6.61,5.64v0.67c0,5.16,2.1,4.67,4.67,4.67H98.7c2.57,0,4.67.5,4.67-4.67V1267C103.37,1264.42,99.32,1261.35,96.76,1261.35Z" transform="translate(-41.23 -976.19)"/><rect class="2f9b7133-d3fa-4303-8ab0-0f40dd3945fb" x="44.01" y="293.21" width="18.75" height="3.86"/><path d="M121.48,1261.35H117.2c-2.57,0-6.61,3.07-6.61,5.64v0.67c0,5.16,2.1,4.67,4.67,4.67h8.17c2.57,0,4.67.5,4.67-4.67V1267C128.09,1264.42,124,1261.35,121.48,1261.35Z" transform="translate(-41.23 -976.19)"/><rect class="2f9b7133-d3fa-4303-8ab0-0f40dd3945fb" x="68.73" y="293.21" width="18.75" height="3.86"/><path class="2f9b7133-d3fa-4303-8ab0-0f40dd3945fb" d="M97.25,1035.3c-1.47,0-11,1.26-13.38,2.4-5.95,2.85-6.29-.42-8.79,5.83-1.78,4.45-5.35,29.35-5.69,39.35s-1.38,50,0,55c5.34-2.07,7.87-1.33,9.55-.78,1.85-3,.59-55.76,5.78-64.19,0,0-2.57,32.56-3.26,48.94s-0.69,37.75,0,41.72c1.38,2.93,15.51,4.31,21.55,3.45,1.9-8.45,1.72-78.44,2-93.26s-5.67-24.48-12.05-36.59l2.12-.33,2.11-1Z" transform="translate(-41.23 -976.19)"/><path class="2b3a81bf-027d-472c-9c09-2e1e2976a3db" d="M86.5,1061c-3.15,1.31-3.26,3.38-1.53,4.93s18.26,21.52,18.84,46.92c-0.3-23.52-4.51-39.93-17.31-51.85" transform="translate(-41.23 -976.19)"/><path class="daa74427-d393-48fe-bc3b-c8e5409aa210" d="M105.06,1069.43c0.33,19.31-.67,68.78-0.67,68.78s0.07-3.68-.52-24-4.14-28.1-8.74-37.06-11.6-20.17-9.87-21.38c9.48-6.9,8.79-13.27,7.75-18.66-0.48-.77,12.13,19.5,12.06,32.28" transform="translate(-41.23 -976.19)"/><ellipse class="2f9b7133-d3fa-4303-8ab0-0f40dd3945fb" cx="49.01" cy="80.83" rx="2.76" ry="2.07"/><ellipse class="2f9b7133-d3fa-4303-8ab0-0f40dd3945fb" cx="99.55" cy="1077.7" rx="2.07" ry="2.76" transform="translate(-804.23 -552.21) rotate(-47.56)"/><path class="2b3a81bf-027d-472c-9c09-2e1e2976a3db" d="M82.64,1134c4.2,1.31,11.31,2.22,13.51,1.18-4.18,0-13.51-1.18-13.51-1.18" transform="translate(-41.23 -976.19)"/><path class="2f9b7133-d3fa-4303-8ab0-0f40dd3945fb" d="M116.29,1035.3c1.47,0,11,1.26,13.38,2.4,5.95,2.85,6.29-.42,8.79,5.83,1.78,4.45,5.35,29.35,5.69,39.35s1.38,50,0,55c-5.34-2.07-8.49-1-9.09-.43-2-2-1-56.11-6.24-64.54,0,0,2.57,32.56,3.26,48.94s0.69,37.75,0,41.72c-1.38,2.93-15.26,6-21.29,5.09-4.09-21.2,1.86-44.22-2.3-94.9-1.21-14.78,5.67-24.48,12.05-36.59l-2.12-.33-2.11-1Z" transform="translate(-41.23 -976.19)"/><path class="2b3a81bf-027d-472c-9c09-2e1e2976a3db" d="M127,1061c3.15,1.31,3.26,3.38,1.53,4.93s-17.52,21.52-18.09,46.92c0.3-23.52,3.76-39.93,16.57-51.85" transform="translate(-41.23 -976.19)"/><path class="daa74427-d393-48fe-bc3b-c8e5409aa210" d="M108.48,1069.43c-0.33,19.31,3.11,21.66.67,68.78,0,0,.67-3.34,1.26-23.62s3.4-28.44,8-37.41,11.6-20.17,9.87-21.38c-9.48-6.9-8.79-13.27-7.75-18.66,0,0-12.13,19.22-12.06,32.28" transform="translate(-41.23 -976.19)"/><ellipse class="2f9b7133-d3fa-4303-8ab0-0f40dd3945fb" cx="82.07" cy="80.83" rx="2.76" ry="0.33"/><ellipse class="2f9b7133-d3fa-4303-8ab0-0f40dd3945fb" cx="113.99" cy="1077.7" rx="2.76" ry="0.34" transform="translate(-917.56 -338.62) rotate(-60)"/><path class="2b3a81bf-027d-472c-9c09-2e1e2976a3db" d="M130.9,1134c-4.2,1.31-11.31,2.22-13.51,1.18,4.18,0,13.51-1.18,13.51-1.18" transform="translate(-41.23 -976.19)"/><path class="7572f87b-14d9-4305-87c1-69108c0137d3" d="M121.48,1020.67c0.71-4.28,1.78-15.7-.83-24.47-3.57-12-10.94-5.47-14.71-11.07,0,0-1.93-.47-1.47-4.4s3.3-7,13.32-1.86c7.46,3.79,12.4,12.74,10.27,27.68-2,14.13-1.16,24.7-1.72,32.76,0,0,0,1.83-.75,1.59-1.14-.34-0.93-1.88-0.93-1.88A79,79,0,0,0,121.48,1020.67Z" transform="translate(-41.23 -976.19)"/><ellipse class="5a498eae-98f4-4ab2-afb2-29662c0df8ad" cx="65.25" cy="297.37" rx="65.25" ry="9.41"/><ellipse class="fda1e126-cce1-4c88-824f-f0c12ccad242" cx="65.25" cy="296.37" rx="47.37" ry="6.83"/></svg>