<svg id="dd329a8d-ea15-4f75-b15f-ea6952d16843" data-name="People" xmlns="http://www.w3.org/2000/svg" xmlns:xlink="http://www.w3.org/1999/xlink" viewBox="0 0 130.51 307.06"><defs><style>.fac78eac-fd8c-4cc5-a687-7c762a661a3b{fill:none;}.e86cbe0c-54db-4bae-b633-49c4541f807c{fill:#0c436d;}.\35 a5f69ae-bfd1-4cee-9ae4-bae4fbe0faba{fill:#eddccb;}.e0ac2516-d666-49b3-89a9-797d9aa17945{fill:#88817b;}.\31 7a97513-3707-4569-9b57-a8e98099730a{fill:#a19890;}.\37 3467de5-c3f8-4fe0-b510-187cd3dab8c6{fill:#c2b5ab;}.\30 7b2d3c0-6c01-45bf-9fbe-2efbac06d297{fill:#231f20;}.bad9cf22-4a39-4280-97d0-7fcb31bc64b2{fill:#2a2c44;}.\30 615ce9a-86b2-42e6-b3f9-bc4f412e4d6f,.\34 0800b76-61c6-4061-b342-d70e54a223b1,.b81b687d-7700-4876-857e-04dca4f171b9{fill:#005080;}.\30 615ce9a-86b2-42e6-b3f9-bc4f412e4d6f{opacity:0.2;}.\34 0800b76-61c6-4061-b342-d70e54a223b1{opacity:0.4;}.\36 ae47ecb-0c6e-429b-8ea3-8e101642b7da{fill:#c4b7ab;}.\35 4fa110e-3f9c-4f38-b4b7-8ae9de871af0{fill:#70cbf9;}.fbccd804-00dd-4ccb-a63a-19c30931c6a1{fill:#cdc0b3;}.f4c27b28-bb31-4194-810b-4908f16632a6{clip-path:url(#9f5e3539-fa0a-4780-9085-5d90dee08cba);}.e307024e-0c33-4de5-979e-d5f3eab4ccdb{fill:#f4ece6;opacity:0.5;}.\33 4c4f5b7-a783-4364-bd0b-04ae934cf934{fill:#39464e;}.\36 22b3b8a-e2ac-4b26-b834-9d5dd32dd1f3{fill:#004470;}.\32 d22f704-d337-4013-9be0-5ce898a9cec3{fill:#005f99;}</style><clipPath id="9f5e3539-fa0a-4780-9085-5d90dee08cba" transform="translate(-41.23 -1746.14)"><path class="fac78eac-fd8c-4cc5-a687-7c762a661a3b" d="M106.9,1802.53H107c-9.11,0-17.1-12-17.43-22.67l-0.86-12.57c0-10.33,5.74-18.78,14.85-18.78h6.8c9.11,0,14.85,8.45,14.85,18.78l-0.86,12.57C123.65,1790.27,116,1802.53,106.9,1802.53Z"/></clipPath></defs><title>veronica1</title><path class="e86cbe0c-54db-4bae-b633-49c4541f807c" d="M144.09,1907.81c-0.55.17-7.26,0.27-9.09-.43,0.1-1.13.26-1.16,0.26-1.16l6.21-.32,2.09,1.24Z" transform="translate(-41.23 -1746.14)"/><polygon class="5a5f69ae-bfd1-4cee-9ae4-bae4fbe0faba" points="95.36 167.53 102.63 167.28 101.35 115.53 94.51 115.45 95.36 167.53"/><path class="e0ac2516-d666-49b3-89a9-797d9aa17945" d="M140.38,1924.19s-1.4,3.19-1.47,3.24a4.6,4.6,0,0,1-.78.1l-0.2-.6,1.39-4.24,0.25-4.52-0.58-2.61,0.21-1.13,1.11-1,1.52,2.58,0.45,3.47-0.7,2.74Z" transform="translate(-41.23 -1746.14)"/><polygon class="17a97513-3707-4569-9b57-a8e98099730a" points="97.34 186.24 96.34 185.37 97.53 181.79 98.65 176.56 98.57 171.93 97.68 168.62 99.58 167.73 101.8 175.39 98.25 186.67 97.34 186.24"/><polygon class="73467de5-c3f8-4fe0-b510-187cd3dab8c6" points="98.23 188.5 96.33 187.92 97.99 182.22 99 176.45 98.83 171.95 97.78 168.58 98.52 166.04 101.96 168.36 98.23 188.5"/><polygon class="5a5f69ae-bfd1-4cee-9ae4-bae4fbe0faba" points="102.55 163.85 103.36 171.58 102.56 177.48 101.38 183.06 98.89 189.57 97 188.96 98.83 182.06 99.69 176.53 99.44 172.02 98.47 168.42 97.54 170.7 96.94 178.26 96.15 179.87 94.42 179.23 94.15 173.17 94.29 167.47 96.64 158.02 102.55 163.85"/><path class="07b2d3c0-6c01-45bf-9fbe-2efbac06d297" d="M105.71,1747.84c-4.83-3.62-23.66-2.07-21.79,29.42,0.45,7.49,2.61,16.34,2.37,23.63s36,0,38.15,5.44c0.93,2.3,2.6-2.74,1.17-26.47C123.07,1737.68,105.71,1747.84,105.71,1747.84Z" transform="translate(-41.23 -1746.14)"/><polygon class="bad9cf22-4a39-4280-97d0-7fcb31bc64b2" points="72.62 287.46 82.66 287.58 90.03 151.62 42.38 151.62 48.58 288.23 58.46 288.23 66.03 174.59 72.62 287.46"/><ellipse class="0615ce9a-86b2-42e6-b3f9-bc4f412e4d6f" cx="65.25" cy="297.65" rx="65.25" ry="9.41"/><ellipse class="40800b76-61c6-4061-b342-d70e54a223b1" cx="65.25" cy="296.65" rx="47.37" ry="6.83"/><polygon class="5a5f69ae-bfd1-4cee-9ae4-bae4fbe0faba" points="36.99 167.01 29.72 166.75 31 115.01 37.84 114.93 36.99 167.01"/><path class="e0ac2516-d666-49b3-89a9-797d9aa17945" d="M74.45,1923.66s1.4,3.19,1.47,3.24a4.6,4.6,0,0,0,.78.1l0.2-.6-1.39-4.24-0.25-4.52,0.58-2.61-0.21-1.13-1.11-1L73,1915.43l-0.45,3.47,0.7,2.74Z" transform="translate(-41.23 -1746.14)"/><polygon class="17a97513-3707-4569-9b57-a8e98099730a" points="35.02 185.72 36.03 184.85 34.83 181.27 33.72 176.04 33.8 171.41 34.69 168.1 32.79 167.21 30.57 174.87 34.12 186.15 35.02 185.72"/><polygon class="73467de5-c3f8-4fe0-b510-187cd3dab8c6" points="34.14 187.98 36.03 187.4 34.38 181.7 33.37 175.93 33.54 171.43 34.59 168.06 33.85 165.52 30.41 167.84 34.14 187.98"/><polygon class="5a5f69ae-bfd1-4cee-9ae4-bae4fbe0faba" points="29.82 163.33 29.01 171.06 29.8 176.96 30.99 182.54 33.48 189.05 35.37 188.44 33.53 181.54 32.68 176.01 32.93 171.5 33.9 167.89 34.83 170.18 35.43 177.73 36.22 179.34 37.95 178.71 38.22 172.65 38.08 166.95 35.73 157.5 29.82 163.33"/><path class="6ae47ecb-0c6e-429b-8ea3-8e101642b7da" d="M71.08,1907.83s6.45-1.71,7.23-.32c0-1.15,0-1.54,0-1.54l-6.67-.85-0.56,1.59v1.12Z" transform="translate(-41.23 -1746.14)"/><path class="6ae47ecb-0c6e-429b-8ea3-8e101642b7da" d="M143.75,1908.36s-6.48-1.73-7.26-.34c0-1.15,0-2.4,0-2.4h6.67l0.56-.24Z" transform="translate(-41.23 -1746.14)"/><path class="54fa110e-3f9c-4f38-b4b7-8ae9de871af0" d="M138,1823.69c-1.17-8.82-1.94-14.62-10.93-15.8L107.69,1805l-0.36,0-0.36,0-19.33,2.92c-9,1.18-10.74,7-11.9,15.8,0.07-.78-4.47,32.24-4.65,40.88-0.1,5-.27,42.47-0.27,42.47a10.76,10.76,0,0,1,3.9-.85,9.3,9.3,0,0,1,3.76.68l1.88-42.31L85,1830.48c-1.44,12.46,1.4,27.45.14,39.94-1.3,12.84-2.45,17.7-2.45,27.85H131c0-9.85-.77-16.41-1.59-27.85-0.85-11.86,1.09-22.27.3-39.94l4.32,34.1,2.17,42.12a16.83,16.83,0,0,1,4.1-.39,11.2,11.2,0,0,1,3.57.73s-0.73-37.86-.76-42.47C143,1856,138,1823.69,138,1823.69Z" transform="translate(-41.23 -1746.14)"/><path class="5a5f69ae-bfd1-4cee-9ae4-bae4fbe0faba" d="M118.66,1806.63l-2.41-.82-0.4-8.06c-2.89,2.3-15.33,2.43-18.34,0l-0.36,8.06-2.11,1s1,8.21,11.16,8.21C116.84,1815,118.66,1806.63,118.66,1806.63Z" transform="translate(-41.23 -1746.14)"/><path class="6ae47ecb-0c6e-429b-8ea3-8e101642b7da" d="M97.35,1801.09s4.06,4.72,9.31,4.72,9.37-4.54,9.37-4.54l-0.11-3.24-18.47-.35Z" transform="translate(-41.23 -1746.14)"/><path class="fbccd804-00dd-4ccb-a63a-19c30931c6a1" d="M89.5,1780.76h0a2,2,0,0,0,1.74-2.17l-0.6-7.51a1.94,1.94,0,0,0-2.06-1.83h0a2,2,0,0,0-1.74,2.17l0.6,7.51A1.94,1.94,0,0,0,89.5,1780.76Z" transform="translate(-41.23 -1746.14)"/><path class="5a5f69ae-bfd1-4cee-9ae4-bae4fbe0faba" d="M106.86,1802.53h0.07c-9.11,0-17.1-12-17.43-22.67l-0.86-12.57c0-10.33,5.74-18.78,14.85-18.78h6.8c9.11,0,14.85,8.45,14.85,18.78l-0.86,12.57C123.61,1790.27,116,1802.53,106.86,1802.53Z" transform="translate(-41.23 -1746.14)"/><g class="f4c27b28-bb31-4194-810b-4908f16632a6"><polygon class="e307024e-0c33-4de5-979e-d5f3eab4ccdb" points="83.95 64.09 65.49 64.58 65.49 1.8 83.95 1.31 83.95 64.09"/></g><path class="07b2d3c0-6c01-45bf-9fbe-2efbac06d297" d="M103.26,1747.41c2.59,0.27,3.93,2.85,2.62,7.67s-17.2,4.22-18.45,14.17c-2.45-2.13-1.54-2.25-1.54-2.25s1.35-11.92,3.51-12.77S100,1747.07,103.26,1747.41Z" transform="translate(-41.23 -1746.14)"/><path d="M96.69,2031.29H92.41c-2.57,0-6.61,3.07-6.61,5.64v0.67c0,5.16,2.1,4.67,4.67,4.67h8.17c2.57,0,4.67.5,4.67-4.67v-0.67C103.3,2034.37,99.26,2031.29,96.69,2031.29Z" transform="translate(-41.23 -1746.14)"/><rect class="34c4f5b7-a783-4364-bd0b-04ae934cf934" x="43.95" y="293.21" width="18.75" height="3.86"/><path d="M121.41,2031.29h-4.28c-2.57,0-6.61,3.07-6.61,5.64v0.67c0,5.16,2.1,4.67,4.67,4.67h8.17c2.57,0,4.67.5,4.67-4.67v-0.67C128,2034.37,124,2031.29,121.41,2031.29Z" transform="translate(-41.23 -1746.14)"/><rect class="34c4f5b7-a783-4364-bd0b-04ae934cf934" x="68.66" y="293.21" width="18.75" height="3.86"/><path class="b81b687d-7700-4876-857e-04dca4f171b9" d="M97.18,1805.25c-1.47,0-11,1.26-13.38,2.4-5.95,2.85-6.29-.42-8.79,5.83-1.78,4.45-5.35,29.35-5.69,39.35s-1.38,50,0,55c5.34-2.07,7.87-1.33,9.55-.78,1.85-3,.59-55.76,5.78-64.19,0,0-2.57,32.56-3.26,48.94s-0.69,37.75,0,41.72c1.38,2.93,15.51,4.31,21.55,3.45,1.9-8.45,1.72-78.44,2-93.26s-5.67-24.48-12.05-36.59l2.12-.33,2.11-1Z" transform="translate(-41.23 -1746.14)"/><path class="622b3b8a-e2ac-4b26-b834-9d5dd32dd1f3" d="M86.43,1830.91c-3.15,1.31-3.26,3.38-1.53,4.93s18.26,21.52,18.84,46.92c-0.3-23.52-4.51-39.93-17.31-51.85" transform="translate(-41.23 -1746.14)"/><path class="2d22f704-d337-4013-9be0-5ce898a9cec3" d="M105,1839.38c0.33,19.31-.67,68.78-0.67,68.78s0.07-3.68-.52-24-4.14-28.1-8.74-37.06-11.6-20.17-9.87-21.38c9.48-6.9,8.79-13.27,7.75-18.66-0.48-.77,12.13,19.5,12.06,32.28" transform="translate(-41.23 -1746.14)"/><ellipse class="b81b687d-7700-4876-857e-04dca4f171b9" cx="48.95" cy="80.83" rx="2.76" ry="2.07"/><ellipse class="b81b687d-7700-4876-857e-04dca4f171b9" cx="99.49" cy="1847.65" rx="2.07" ry="2.76" transform="translate(-1372.5 -1071.79) rotate(-47.56)"/><path class="e86cbe0c-54db-4bae-b633-49c4541f807c" d="M82.58,1904c4.2,1.31,11.31,2.22,13.51,1.18-4.18,0-13.51-1.18-13.51-1.18" transform="translate(-41.23 -1746.14)"/><path class="b81b687d-7700-4876-857e-04dca4f171b9" d="M116.22,1805.25c1.47,0,11,1.26,13.38,2.4,5.95,2.85,6.29-.42,8.79,5.83,1.78,4.45,5.35,29.35,5.69,39.35s1.38,50,0,55c-5.34-2.07-8.49-1-9.09-.43-2-2-1-56.11-6.24-64.54,0,0,2.57,32.56,3.26,48.94s0.69,37.75,0,41.72c-1.38,2.93-15.26,6-21.29,5.09-4.09-21.2,1.86-44.22-2.3-94.9-1.21-14.78,5.67-24.48,12.05-36.59l-2.12-.33-2.11-1Z" transform="translate(-41.23 -1746.14)"/><path class="622b3b8a-e2ac-4b26-b834-9d5dd32dd1f3" d="M127,1830.91c3.15,1.31,3.26,3.38,1.53,4.93s-17.52,21.52-18.09,46.92c0.3-23.52,3.76-39.93,16.57-51.85" transform="translate(-41.23 -1746.14)"/><path class="2d22f704-d337-4013-9be0-5ce898a9cec3" d="M108.41,1839.38c-0.33,19.31,3.11,21.66.67,68.78,0,0,.67-3.34,1.26-23.62s3.4-28.44,8-37.41,11.6-20.17,9.87-21.38c-9.48-6.9-8.79-13.27-7.75-18.66,0,0-12.13,19.22-12.06,32.28" transform="translate(-41.23 -1746.14)"/><ellipse class="b81b687d-7700-4876-857e-04dca4f171b9" cx="82" cy="80.83" rx="2.76" ry="0.33"/><ellipse class="b81b687d-7700-4876-857e-04dca4f171b9" cx="113.92" cy="1847.65" rx="2.76" ry="0.34" transform="matrix(0.5, -0.87, 0.87, 0.5, -1584.38, -723.65)"/><path class="e86cbe0c-54db-4bae-b633-49c4541f807c" d="M130.83,1904c-4.2,1.31-11.31,2.22-13.51,1.18,4.18,0,13.51-1.18,13.51-1.18" transform="translate(-41.23 -1746.14)"/><path class="07b2d3c0-6c01-45bf-9fbe-2efbac06d297" d="M121.41,1790.62c0.71-4.28,1.78-15.7-.83-24.47-3.57-12-10.94-5.47-14.71-11.07,0,0-1.93-.47-1.47-4.4s3.3-7,13.32-1.86c7.46,3.79,12.4,12.74,10.27,27.68-2,14.13-1.16,24.7-1.72,32.76,0,0,0,1.83-.75,1.59-1.14-.34-0.93-1.88-0.93-1.88A79,79,0,0,0,121.41,1790.62Z" transform="translate(-41.23 -1746.14)"/></svg>